<svg xmlns="http://www.w3.org/2000/svg" xmlns:xlink="http://www.w3.org/1999/xlink" fill="none" version="1.1" width="1299.60791015625" height="652.212890625" viewBox="0 0 1299.60791015625 652.212890625"><g><g><path d="M785.1184722851563,622.7619L785.1184722851563,623.8005C785.0567922851562,635.873,783.0207222851562,645.2925,779.0256622851563,651.9251C778.9691122851563,652.0228,778.9074122851563,652.1154,778.8508322851562,652.213L778.4035022851563,651.9406L777.9767762851562,651.6732C782.4088422851562,644.5109,783.9770522851562,634.387,784.0336022851562,623.857C784.0387622851563,623.5176,784.0438822851562,623.1732,784.0387622851563,622.8287C784.0233122851563,618.3708,783.7508222851562,613.8617,783.3137522851563,609.481C783.2829022851563,609.1417,783.2469222851563,608.7972,783.2109022851563,608.4527C782.6042222851562,602.6735,781.7301022851562,597.1514,780.8354822851562,592.3543C780.7737722851563,592.015,780.7069422851563,591.6756,780.6400722851563,591.3414C779.0924422851563,583.22791,777.5139772851562,577.35101,777.1540832851563,576.050171C777.1129760851562,575.890808,777.0872497551562,575.803406,777.0820922851562,575.782837L777.5705562851563,575.643982L777.5757142851562,575.638855L778.0693052851562,575.5C778.0744632851563,575.5205688,778.1618622851563,575.81366,778.3058122851562,576.358643C778.8559922851563,578.39471,780.2853722851562,583.92194,781.6889922851562,591.2128C781.7507022851562,591.5418999999999,781.8175322851563,591.8812,781.8792422851562,592.2205C782.6093422851562,596.1127,783.3240322851562,600.4625,783.8896222851563,605.0283Q784.1055622851562,606.7482,784.2752422851562,608.4218C784.3163422851562,608.7662,784.3523522851563,609.1108,784.3832422851563,609.4501Q785.0928022851563,616.5534,785.1184722851563,622.7619Z" fill="#FFFFFF" fill-opacity="1"/></g><g><path d="M367.5848419140625,574.2619L367.5848419140625,575.3005C367.5231619140625,587.373,365.4870919140625,596.7925,361.4920319140625,603.4251C361.4354819140625,603.5228,361.3737819140625,603.6154,361.3172019140625,603.713L360.8698719140625,603.4406L360.4431459140625,603.1732C364.8752119140625,596.0109,366.4434219140625,585.887,366.4999719140625,575.357C366.5051319140625,575.0176,366.5102519140625,574.6732,366.5051319140625,574.3287C366.4896819140625,569.8708,366.2171919140625,565.3617,365.7801219140625,560.981C365.7492719140625,560.6417,365.7132919140625,560.2972,365.6772719140625,559.9527C365.0705919140625,554.1735,364.1964719140625,548.6514,363.3018519140625,543.8543C363.2401419140625,543.515,363.1733119140625,543.1756,363.1064419140625,542.8414C361.5588119140625,534.72791,359.9803469140625,528.85101,359.6204529140625,527.550171C359.5793457140625,527.390808,359.5536193840625,527.303406,359.5484619140625,527.282837L360.0369259140625,527.143982L360.0420839140625,527.138855L360.5356749140625,527C360.5408329140625,527.0205688,360.6282319140625,527.31366,360.7721819140625,527.858643C361.3223619140625,529.89471,362.7517419140625,535.42194,364.1553619140625,542.7128C364.2170719140625,543.0418999999999,364.2839019140625,543.3812,364.3456119140625,543.7205C365.0757119140625,547.6127,365.7904019140625,551.9625,366.3559919140625,556.5283Q366.5719319140625,558.2482,366.7416119140625,559.9218C366.7827119140625,560.2662,366.8187219140625,560.6108,366.8496119140625,560.9501Q367.5591719140625,568.0534,367.5848419140625,574.2619Z" fill="#FFFFFF" fill-opacity="1"/></g><g><path d="M781.68899140625,591.212702578125C781.34459140625,591.258972578125,780.99489140625,591.305302578125,780.64009140625,591.341242578125C779.67359140625,591.440612578125,778.70569140625,591.490352578125,777.74029140625,591.490352578125C773.61264140625,591.495852578125,769.53635140625,590.575132578125,765.81170640625,588.796142578125C765.59576440625,589.068603578125,765.37982140625,589.341125578125,765.15869140625,589.618774578125C769.07684140625,591.531312578125,773.38022140625,592.523192578125,777.74019140625,592.518672578125C778.77409140625,592.518432578125,779.80739140625,592.463502578125,780.83549140625,592.354122578125C781.18509140625,592.318112578125,781.53469140625,592.271852578125,781.87919140625,592.220462578125C784.72279140625,591.812562578125,787.48799140625,590.975222578125,790.08009140625,589.737060578125Q789.74849140625,589.312866578125,789.43229140625,588.904113578125C786.97899140625,590.050722578125,784.36969140625,590.828672578125,781.68899140625,591.212702578125Z" fill="#FFFFFF" fill-opacity="1"/></g><g><path d="M364.15536103515626,542.712702578125C363.81096103515625,542.758972578125,363.46126103515627,542.805302578125,363.10646103515626,542.841242578125C362.13996103515626,542.940612578125,361.1720610351563,542.990352578125,360.20666103515623,542.990352578125C356.07901103515627,542.995852578125,352.00272103515624,542.075132578125,348.27807603515623,540.296142578125C348.06213403515625,540.568603578125,347.84619103515627,540.841125578125,347.62506103515625,541.118774578125C351.5432110351563,543.031312578125,355.8465910351562,544.023192578125,360.20656103515626,544.018672578125C361.2404610351563,544.018432578125,362.27376103515627,543.963502578125,363.30186103515626,543.854122578125C363.6514610351563,543.818112578125,364.0010610351562,543.771852578125,364.34556103515627,543.720462578125C367.18916103515625,543.312562578125,369.95436103515624,542.475222578125,372.54646103515626,541.237060578125Q372.2148610351563,540.812866578125,371.89866103515624,540.404113578125C369.4453610351562,541.550722578125,366.83606103515626,542.328672578125,364.15536103515626,542.712702578125Z" fill="#FFFFFF" fill-opacity="1"/></g><g><path d="M784.2752296875,608.421785546875Q783.7431296875,608.452685546875,783.2109296875,608.452685546875C783.1029296875,608.457785546875,782.9898296875,608.457785546875,782.8818296875,608.457785546875C773.8040296875,608.457885546875,765.3005096875,604.016055546875,760.1147456875,596.565185546875C759.9090876875,596.868530546875,759.7034296875,597.171874546875,759.5029296875,597.480346546875C764.9063996875,605.016415546875,773.6101296875,609.485985546875,782.8818296875,609.485985546875C783.0258296875,609.485985546875,783.1697296875,609.485985546875,783.3137296875,609.480885546875C783.6736296875,609.475785546875,784.0284296875,609.465485546875,784.3831296875,609.450085546875C789.8729296875,609.168785546875,795.1654296875,607.312485546875,799.6281296875,604.102785546875C799.4635296875,603.799435546875,799.2990296875,603.496095546875,799.1293296875,603.192745546875C794.7922296875,606.343995546875,789.6299296875,608.161285546875,784.2752296875,608.421785546875Z" fill="#FFFFFF" fill-opacity="1"/></g><g><path d="M366.7415993164062,559.921785546875Q366.20949931640627,559.952685546875,365.6772993164062,559.952685546875C365.5692993164063,559.957785546875,365.45619931640624,559.957785546875,365.34819931640624,559.957785546875C356.27039931640627,559.957885546875,347.76687931640623,555.516055546875,342.5811153164062,548.065185546875C342.37545731640625,548.368530546875,342.1697993164062,548.671874546875,341.96929931640625,548.980346546875C347.3727693164063,556.516415546875,356.0764993164062,560.985985546875,365.34819931640624,560.985985546875C365.49219931640624,560.985985546875,365.6360993164063,560.985985546875,365.7800993164062,560.980885546875C366.13999931640626,560.975785546875,366.4947993164063,560.965485546875,366.84949931640625,560.950085546875C372.33929931640625,560.668785546875,377.6317993164063,558.812485546875,382.09449931640626,555.602785546875C381.92989931640625,555.299435546875,381.7653993164063,554.996095546875,381.59569931640624,554.692745546875C377.2585993164063,557.843995546875,372.09629931640626,559.661285546875,366.7415993164062,559.921785546875Z" fill="#FFFFFF" fill-opacity="1"/></g><g><path d="M785.1184303710937,622.76186171875C784.7585303710938,622.79276171875,784.3987303710937,622.81326171875,784.0387303710937,622.82876171875C783.6531303710938,622.84416171875,783.2675303710937,622.85446171875,782.8819303710937,622.85446171875C770.5379303710938,622.84016171875,759.6801803710938,614.69166171875,756.2174683710938,602.84326171875C755.9860843710937,603.25976571875,755.7546993710938,603.67108171875,755.5336303710938,604.08758171875C759.4295303710937,615.89146171875,770.4518303710937,623.86956171875,782.8819303710937,623.88286171875C783.2675303710937,623.88286171875,783.6531303710938,623.87766171875,784.0336303710938,623.85716171875C784.3987303710937,623.84676171875,784.7586303710938,623.82626171875,785.1185303710937,623.80056171875C792.3882303710938,623.23176171875,799.1702303710938,619.92166171875,804.0911303710938,614.54046171875C803.9831303710937,614.15996171875,803.8597303710937,613.78466171875,803.7363303710938,613.40416171875C798.9833303710938,618.82576171875,792.3051303710938,622.18236171875,785.1184303710937,622.76186171875Z" fill="#FFFFFF" fill-opacity="1"/></g><g><path d="M367.5848,574.26186171875C367.2249,574.29276171875,366.8651,574.31326171875,366.50509999999997,574.32876171875C366.1195,574.34416171875,365.7339,574.35446171875,365.3483,574.35446171875C353.0043,574.34016171875,342.14655,566.19166171875,338.683838,554.34326171875C338.452454,554.75976571875,338.221069,555.17108171875,338,555.58758171875C341.8959,567.39146171875,352.9182,575.36956171875,365.3483,575.38286171875C365.7339,575.38286171875,366.1195,575.37766171875,366.5,575.35716171875C366.8651,575.34676171875,367.225,575.32626171875,367.5849,575.30056171875C374.8546,574.73176171875,381.6366,571.42166171875,386.5575,566.04046171875C386.4495,565.65996171875,386.3261,565.28466171875,386.2027,564.90416171875C381.4497,570.32576171875,374.7715,573.68236171875,367.5848,574.26186171875Z" fill="#FFFFFF" fill-opacity="1"/></g><g><path d="M1295.717746875,618.432666796875L1277.847146875,619.463166796875L1297.073046875,612.513666796875Q1300.172646875,595.721666796875,1297.932746875,577.178466796875Q1259.302446875,580.178466796875,1245.947326875,596.476166796875C1232.592166875,612.773766796875,1237.617797875,626.403766796875,1249.569546875,636.197566796875C1261.521046875,645.991266796875,1275.872846875,648.240066796875,1289.228046875,631.942466796875C1292.291146875,627.929666796875,1294.499746875,623.331866796875,1295.717746875,618.432666796875Z" fill="#F2F2F2" fill-opacity="1"/></g><g><path d="M601.7197,568.039112109375L583.8491,569.069612109375L603.075,562.120112109375Q606.1746,545.328112109375,603.9347,526.784912109375Q565.3044,529.784912109375,551.94928,546.082612109375C538.59412,562.380212109375,543.619751,576.010212109375,555.5715,585.804012109375C567.523,595.597712109375,581.8748,597.846512109375,595.23,581.548912109375C598.2931,577.536112109375,600.5017,572.938312109375,601.7197,568.039112109375Z" fill="#F2F2F2" fill-opacity="1"/></g><g><path d="M1274.8113685546875,617.8242546875L1274.1531685546875,618.6275546875C1266.4535685546875,627.9262546875,1258.9083885546875,633.9215546875,1251.6143795546875,636.5195546875C1251.5087275546875,636.5593546875,1251.4024045546876,636.5917546875,1251.2966305546875,636.6314546875L1251.1233515546876,636.1372546875L1250.9627685546875,635.6599546875C1258.9304785546874,632.9291546875,1266.5601685546876,626.0926546875,1273.2781685546875,617.9837546875C1273.4971685546875,617.7245546875,1273.7195685546876,617.4613546875,1273.9338685546875,617.1916546875C1276.7474685546874,613.7338546875,1279.3946685546875,610.0734546875,1281.8332685546875,606.4080546875C1282.0244685546875,606.1260546875,1282.2149685546874,605.8367546875,1282.4054685546876,605.5474546875C1285.5992685546876,600.6928546875,1288.4231685546874,595.8676546875,1290.7717685546875,591.5901546875C1290.9390685546875,591.2885546875,1291.1024685546874,590.9836546875,1291.2626685546875,590.6828546875C1295.2080685546875,583.4263946875,1297.7120685546874,577.8802446875,1298.2581685546875,576.6459956875C1298.3273685546876,576.4966426875,1298.3628685546876,576.4127196875,1298.3719685546876,576.3935546875L1298.8377685546875,576.5957636875L1298.8450685546875,576.5950316875L1299.3148685546876,576.8005366875C1299.3057685546876,576.8197016875,1299.1876685546874,577.1018066875,1298.9534685546876,577.6145646875C1298.0884685546876,579.5380846875,1295.6907685546876,584.7192946875,1292.1553685546876,591.2482546875C1291.9945685546875,591.5418546875,1291.8310685546876,591.8467546875,1291.6637685546875,592.1483546875C1289.7614685546876,595.6215546875,1287.5572685546874,599.4390546875,1285.1008685546874,603.3290546875Q1284.1777685546874,604.7961546875,1283.2482685546875,606.1982546875C1283.0617685546874,606.4907546875,1282.8712685546875,606.7800546875,1282.6799685546875,607.0620546875Q1278.7266685546874,613.0058546875,1274.8113685546875,617.8242546875Z" fill="#FFFFFF" fill-opacity="1"/></g><g><path d="M580.8133216796875,567.4307L580.1551216796875,568.234C572.4555216796875,577.5327,564.9103416796875,583.528,557.6163326796875,586.126C557.5106806796875,586.1658,557.4043576796875,586.1982,557.2985836796875,586.2379L557.1253046796875,585.7437L556.9647216796875,585.2664C564.9324316796875,582.5356,572.5621216796875,575.6991,579.2801216796875,567.5902C579.4991216796875,567.331,579.7215216796875,567.0678,579.9358216796875,566.7981C582.7494216796875,563.3403,585.3966216796875,559.6799,587.8352216796875,556.0145C588.0264216796875,555.7325,588.2169216796875,555.4432,588.4074216796874,555.1539C591.6012216796875,550.2993,594.4251216796875,545.4741,596.7737216796875,541.1966C596.9410216796875,540.895,597.1044216796874,540.5901,597.2646216796875,540.2893C601.2100216796875,533.03284,603.7140216796874,527.48669,604.2601216796875,526.252441C604.3293216796875,526.103088,604.3648216796875,526.019165,604.3739216796876,526L604.8397216796875,526.202209L604.8470216796875,526.201477L605.3168216796875,526.406982C605.3077216796875,526.426147,605.1896216796875,526.708252,604.9554216796874,527.22101C604.0904216796876,529.14453,601.6927216796875,534.32574,598.1573216796875,540.8547C597.9965216796875,541.1483,597.8330216796875,541.4532,597.6657216796875,541.7548C595.7634216796876,545.228,593.5592216796875,549.0455,591.1028216796875,552.9355Q590.1797216796875,554.4026,589.2502216796875,555.8047C589.0637216796875,556.0972,588.8732216796875,556.3865,588.6819216796875,556.6685Q584.7286216796875,562.6123,580.8133216796875,567.4307Z" fill="#FFFFFF" fill-opacity="1"/></g><g><path d="M1292.1554828125,591.248273828125C1291.8596828125,591.065673828125,1291.5599828125,590.879873828125,1291.2626828125,590.682873828125C1290.4546828125,590.148973828125,1289.6745028125,589.574073828125,1288.9251728125,588.960203828125C1285.7291228125,586.348263828125,1283.1597328125,583.052493828125,1281.4063728125,579.315673828125C1281.0666508125,579.389587428125,1280.7268678125,579.463500828125,1280.3798828125,579.538085828125C1282.1982428125,583.500853828125,1284.8981328125,586.995663828125,1288.2733728125,589.755573828125C1289.0733028125,590.410673828125,1289.9072828125,591.023073828125,1290.7717828125,591.590173828125C1291.0649828125,591.783973828125,1291.3647828125,591.969773828125,1291.6637828125,592.148273828125C1294.1217828125,593.635173828125,1296.7912828125,594.740173828125,1299.5810828125,595.425373828125Q1299.5933828125,594.887173828125,1299.6078828125,594.370573828125C1296.9834828125,593.702373828125,1294.4722828125,592.650273828125,1292.1554828125,591.248273828125Z" fill="#FFFFFF" fill-opacity="1"/></g><g><path d="M598.1574359375,540.854719140625C597.8616359375,540.672119140625,597.5619359375,540.486319140625,597.2646359375,540.289319140625C596.4566359375,539.755419140625,595.6764559375,539.180519140625,594.9271259375,538.566649140625C591.7310759375,535.954709140625,589.1616859375,532.658939140625,587.4083259375,528.922119140625C587.0686039375,528.996032740625,586.7288209375,529.069946140625,586.3818359375,529.144531140625C588.2001959375,533.107299140625,590.9000859375,536.602109140625,594.2753259375,539.362019140625C595.0752559375,540.017119140625,595.9092359375,540.629519140625,596.7737359375,541.196619140625C597.0669359375,541.390419140625,597.3667359375,541.576219140625,597.6657359375,541.754719140625C600.1237359375,543.241619140625,602.7932359375,544.346619140625,605.5830359375,545.031819140625Q605.5953359375,544.493619140625,605.6098359375,543.977019140625C602.9854359375,543.308819140625,600.4742359375,542.256719140625,598.1574359375,540.854719140625Z" fill="#FFFFFF" fill-opacity="1"/></g><g><path d="M1283.2483244140626,606.1982671875Q1282.8171244140624,605.8847671875,1282.4055244140625,605.5474671875C1282.3187244140624,605.4830671875,1282.2312244140626,605.4112671875,1282.1477244140624,605.3428671875C1275.1260344140626,599.5892671875,1271.3641354140625,590.7637971875,1272.0756844140626,581.7138671875C1271.7243654140625,581.8181761875,1271.3729854140624,581.9224241875,1271.0223999140626,582.0339351875C1270.4249874140626,591.2871071875,1274.3241544140626,600.2609671875,1281.4959244140625,606.1382671875C1281.6073244140625,606.2295671875,1281.7186244140626,606.3207671875,1281.8332244140624,606.4080671875C1282.1148244140625,606.6321671875,1282.3958244140624,606.8490671875,1282.6800244140625,607.0620671875C1287.1043244140626,610.3240671875,1292.3747244140625,612.2427671875,1297.8608244140626,612.5886671875C1297.9258244140624,612.2497671875,1297.9908244140624,611.9108671875,1298.0518244140626,611.5686671875C1292.6999244140625,611.2570671875,1287.5551244140624,609.3906671875,1283.2483244140626,606.1982671875Z" fill="#FFFFFF" fill-opacity="1"/></g><g><path d="M589.2502775390625,555.8047125Q588.8190775390625,555.4912125,588.4074775390625,555.1539125C588.3206775390624,555.0895125,588.2331775390625,555.0177125,588.1496775390625,554.9493125C581.1279875390625,549.1957125,577.3660885390625,540.3702425,578.0776375390625,531.3203125C577.7263185390625,531.4246215,577.3749385390626,531.5288695,577.0243530390625,531.6403805C576.4269405390625,540.8935525,580.3261075390625,549.8674125,587.4978775390625,555.7447125C587.6092775390625,555.8360125,587.7205775390624,555.9272125,587.8351775390624,556.0145125C588.1167775390625,556.2386125,588.3977775390625,556.4555125,588.6819775390625,556.6685125C593.1062775390625,559.9305125,598.3766775390625,561.8492125,603.8627775390624,562.1951125C603.9277775390625,561.8562125,603.9927775390624,561.5173125,604.0537775390625,561.1751125C598.7018775390625,560.8635125,593.5570775390624,558.9971125,589.2502775390625,555.8047125Z" fill="#FFFFFF" fill-opacity="1"/></g><g><path d="M1274.811293359375,617.824265234375C1274.513393359375,617.6199652343751,1274.221993359375,617.407665234375,1273.933793359375,617.191565234375C1273.625893359375,616.959065234375,1273.320993359375,616.722565234375,1273.022793359375,616.478165234375C1263.483943359375,608.643165234375,1260.250483359375,595.458565234375,1265.082093359375,584.099365234375C1264.639163359375,584.274841234375,1264.199463359375,584.446350234375,1263.764463359375,584.628357234375C1259.296263359375,596.227565234375,1262.764953359375,609.384665234375,1272.370993359375,617.273465234375C1272.669293359375,617.517965234375,1272.970793359375,617.758365234375,1273.278093359375,617.983565234375C1273.566993359375,618.207065234375,1273.858393359375,618.419265234375,1274.153093359375,618.627465234375C1280.136493359375,622.795365234375,1287.480293359375,624.533665234375,1294.697193359375,623.490265234375C1294.854893359375,623.127565234375,1294.997293359375,622.759065234375,1295.142993359375,622.386565234375C1288.030293359375,623.567365234375,1280.737393359375,621.930865234375,1274.811293359375,617.824265234375Z" fill="#FFFFFF" fill-opacity="1"/></g><g><path d="M580.813246484375,567.430710546875C580.515346484375,567.2264105468751,580.223946484375,567.014110546875,579.935746484375,566.798010546875C579.627846484375,566.565510546875,579.322946484375,566.329010546875,579.024746484375,566.084610546875C569.485896484375,558.249610546875,566.252436484375,545.065010546875,571.084046484375,533.705810546875C570.641116484375,533.881286546875,570.201416484375,534.052795546875,569.766416484375,534.234802546875C565.298216484375,545.834010546875,568.766906484375,558.991110546875,578.372946484375,566.879910546875C578.671246484375,567.124410546875,578.972746484375,567.364810546875,579.280046484375,567.590010546875C579.568946484375,567.813510546875,579.860346484375,568.025710546875,580.155046484375,568.233910546875C586.138446484375,572.401810546875,593.482246484375,574.140110546875,600.699146484375,573.096710546875C600.856846484375,572.734010546875,600.999246484375,572.365510546875,601.1449464843749,571.993010546875C594.032246484375,573.173810546875,586.739346484375,571.537310546875,580.813246484375,567.430710546875Z" fill="#FFFFFF" fill-opacity="1"/></g><g><rect x="670.34716796875" y="0.2718505859375" width="334.9814758300781" height="175.88954162597656" rx="0" fill="#F2F2F2" fill-opacity="1"/></g><g><rect x="670.142578125" y="0" width="334.9814758300781" height="20.390459060668945" rx="0" fill="#E6E6E6" fill-opacity="1"/></g><g><rect x="677.9225463867188" y="28.6578369140625" width="321.13629150390625" height="138.2318878173828" rx="0" fill="#FFFFFF" fill-opacity="1"/></g><g><ellipse cx="701.8858072757721" cy="10.143131494522095" rx="3.3729898929595947" ry="3.3729898929595947" fill="#FFFFFF" fill-opacity="1"/></g><g><ellipse cx="714.6891520023346" cy="10.143131494522095" rx="3.3729898929595947" ry="3.3729898929595947" fill="#FFFFFF" fill-opacity="1"/></g><g><ellipse cx="689.0492594242096" cy="10.143131494522095" rx="3.3729898929595947" ry="3.3729898929595947" fill="#FFFFFF" fill-opacity="1"/></g><g><ellipse cx="732.6332411766052" cy="127.20929098129272" rx="5.926209926605225" ry="5.926209926605225" fill="#E4E4E4" fill-opacity="1"/></g><g><ellipse cx="784.9813857078552" cy="111.68890523910522" rx="5.926209926605225" ry="5.926209926605225" fill="#E4E4E4" fill-opacity="1"/></g><g><ellipse cx="837.3295302391052" cy="127.20929098129272" rx="5.926209926605225" ry="5.926209926605225" fill="#E4E4E4" fill-opacity="1"/></g><g><ellipse cx="889.6776747703552" cy="48.922669887542725" rx="5.926209926605225" ry="5.926209926605225" fill="#E4E4E4" fill-opacity="1"/></g><g><ellipse cx="942.0258193016052" cy="48.193177700042725" rx="5.926209926605225" ry="5.926209926605225" fill="#E4E4E4" fill-opacity="1"/></g><g><path d="M837.4539545898438,128.5370625L784.9809545898438,112.2340625L733.2259545898437,128.0000625L732.0409545898438,126.4190625L784.9809545898438,109.7660625L837.2049545898437,125.8820625L889.0999545898437,48.0910605L889.3089545898438,48.0060616L941.6569545898437,47.9140625L942.3949545898438,49.7470625L890.2549545898437,49.7550625L837.4539545898438,128.5370625Z" fill="#E4E4E4" fill-opacity="1"/></g><g><ellipse cx="775.8738260269165" cy="239.91929721832275" rx="3.174180030822754" ry="3.174180030822754" fill="#FFFFFF" fill-opacity="1"/></g><g><ellipse cx="787.922532081604" cy="239.91929721832275" rx="3.174180030822754" ry="3.174180030822754" fill="#FFFFFF" fill-opacity="1"/></g><g><ellipse cx="763.793869972229" cy="239.91929721832275" rx="3.174180030822754" ry="3.174180030822754" fill="#FFFFFF" fill-opacity="1"/></g><g><rect x="897.9478759765625" y="72.539306640625" width="373.9265441894531" height="196.33851623535156" rx="0" fill="#E6E6E6" fill-opacity="1"/></g><g><rect x="897.719482421875" y="72.2359619140625" width="373.9265441894531" height="22.76106071472168" rx="0" fill="#427D9D" fill-opacity="1"/></g><g><rect x="906.3423461914062" y="101.9881591796875" width="356.5371398925781" height="155.9323272705078" rx="0" fill="#FFFFFF" fill-opacity="1"/></g><g><ellipse cx="933.1531915664673" cy="83.55834293365479" rx="3.765130043029785" ry="3.765130043029785" fill="#FFFFFF" fill-opacity="1"/></g><g><ellipse cx="947.4450616836548" cy="83.55834293365479" rx="3.765130043029785" ry="3.765130043029785" fill="#FFFFFF" fill-opacity="1"/></g><g><ellipse cx="918.824273109436" cy="83.55834293365479" rx="3.765130043029785" ry="3.765130043029785" fill="#FFFFFF" fill-opacity="1"/></g><g><path d="M1087.156615625,136.156005859375C1085.623775625,136.359313859375,1084.478515625,137.666505859375,1084.478515625,139.212795859375C1084.478515625,140.759095859375,1085.623775625,142.066285859375,1087.156615625,142.269595859375L1213.409515625,142.269595859375C1214.942515625,142.066255859375,1216.087515625,140.759065859375,1216.087515625,139.212795859375C1216.087515625,137.666535859375,1214.942515625,136.359374859375,1213.409515625,136.156005859375L1087.156615625,136.156005859375Z" fill="#E6E6E6" fill-opacity="1"/></g><g><path d="M1087.156615625,208.251708984375C1085.623775625,208.455016984375,1084.478515625,209.762238984375,1084.478515625,211.308528984375C1084.478515625,212.854828984375,1085.623775625,214.161988984375,1087.156615625,214.365298984375L1213.409515625,214.365298984375C1214.942515625,214.161958984375,1216.087515625,212.854798984375,1216.087515625,211.308528984375C1216.087515625,209.762238984375,1214.942515625,208.455077984375,1213.409515625,208.251708984375L1087.156615625,208.251708984375Z" fill="#E6E6E6" fill-opacity="1"/></g><g><path d="M1087.156615625,154.4967041015625C1085.623775625,154.7000121015625,1084.478515625,156.0072041015625,1084.478515625,157.5534941015625C1084.478515625,159.0997941015625,1085.623775625,160.4069841015625,1087.156615625,160.6102941015625L1141.483715625,160.6102941015625C1143.016515625,160.4069541015625,1144.161715625,159.0997641015625,1144.161715625,157.5534941015625C1144.161715625,156.0072341015625,1143.016515625,154.7000731015625,1141.483715625,154.4967041015625L1087.156615625,154.4967041015625Z" fill="#E6E6E6" fill-opacity="1"/></g><g><path d="M1087.156555625,171.97900390625C1085.623715625,172.18237290625,1084.478515625,173.48953390625,1084.478515625,175.03579390625C1084.478515625,176.58206390625,1085.623715625,177.88922390625,1087.156555625,178.09259390625L1213.409515625,178.09259390625C1214.942515625,177.88919390625,1216.087515625,176.58203390625,1216.087515625,175.03579390625C1216.087515625,173.48956390625,1214.942515625,172.18240390625,1213.409515625,171.97900390625L1087.156555625,171.97900390625Z" fill="#E6E6E6" fill-opacity="1"/></g><g><path d="M1087.156615625,190.3197021484375C1085.623775625,190.5230101484375,1084.478515625,191.8302021484375,1084.478515625,193.3764921484375C1084.478515625,194.9227921484375,1085.623775625,196.2299821484375,1087.156615625,196.4332921484375L1141.483715625,196.4332921484375C1143.016515625,196.2299521484375,1144.161715625,194.9227621484375,1144.161715625,193.3764921484375C1144.161715625,191.8302321484375,1143.016515625,190.5230711484375,1141.483715625,190.3197021484375L1087.156615625,190.3197021484375Z" fill="#E6E6E6" fill-opacity="1"/></g><g><path d="M1013.57588984375,211.0163235546875C1015.18288984375,211.0170935546875,1016.48618984375,209.7150535546875,1016.48688984375,208.1081235546875C1016.48768984375,206.5011935546875,1015.18568984375,205.1979064936875,1013.57868984375,205.1971435546875L954.55303984375,205.1971435546875C952.94610984375,205.1963806156875,951.64282226575,206.4984435546875,951.64208984375,208.1053435546875C951.64129638675,209.7122535546875,952.94329984375,211.0155335546875,954.55022984375,211.0163235546875L1013.57588984375,211.0163235546875Z" fill="#E4E4E4" fill-opacity="1"/></g><g><path d="M1013.57588984375,193.873623359375C1015.18288984375,193.873623359375,1016.48548984375,192.570953359375,1016.48548984375,190.964053359375C1016.48548984375,189.357113359375,1015.18288984375,188.054443359375,1013.57588984375,188.054443359375L954.55303984375,188.054443359375C952.94610984375,188.053680420375,951.64282226575,189.355743359375,951.64208984375,190.962643359375C951.64129638675,192.569553359375,952.94329984375,193.872863359375,954.55022984375,193.873623359375L1013.57588984375,193.873623359375Z" fill="#E4E4E4" fill-opacity="1"/></g><g><path d="M984.064255859375,139.5048828125C994.179055859375,139.5048828125,1002.378655859375,147.7045628125,1002.378655859375,157.8193828125C1002.378655859375,167.9341828125,994.179055859375,176.1338828125,984.064255859375,176.1338828125C973.949405859375,176.1338828125,965.749694824175,167.9341828125,965.749755859375,157.8193828125C965.761108359375,147.7093228125,973.954105859375,139.5162964125,984.064255859375,139.5048828125Z" fill="#427D9D" fill-opacity="1"/></g><g><path d="M1176.86891640625,431.568926953125C1180.59731640625,427.130426953125,1179.40751640625,420.40062695312497,1174.38321640625,417.509626953125L1180.57161640625,385.005126953125L1164.70019640625,391.619386953125L1161.25683640625,421.472126953125C1159.16815640625,425.731126953125,1160.59503140625,430.879126953125,1164.57812640625,433.455126953125C1168.56121640625,436.031126953125,1173.84151640625,435.22082695312497,1176.86891640625,431.568926953125Z" fill="#FFB7B7" fill-opacity="1"/></g><g><path d="M1256.0048515625,631.02401171875L1242.5658615625,631.02301171875L1236.1728515625,579.18701171875L1256.0078515625,579.18798828075L1256.0048515625,631.02401171875Z" fill="#FFB7B7" fill-opacity="1"/></g><g><path d="M1259.4325314453124,644.050709765625L1216.0997314453125,644.049109765625L1216.0997314453125,643.501009765625C1216.1008911153126,634.185849765625,1223.6518514453126,626.635009765625,1232.9660314453124,626.635009765625L1232.9671314453126,626.635009765625L1259.4333314453124,626.636108395625L1259.4325314453124,644.050709765625Z" fill="#2F2E41" fill-opacity="1"/></g><g><path d="M1182.56100390625,631.02401171875L1169.12201390625,631.02301171875L1162.72900390625,579.18701171875L1182.56400390625,579.18798828075L1182.56100390625,631.02401171875Z" fill="#FFB7B7" fill-opacity="1"/></g><g><path d="M1182.6999875,644.050709765625L1139.3671875,644.049109765625L1139.3671875,643.501009765625C1139.36834717,634.185849765625,1146.9193075,626.635009765625,1156.2334875,626.635009765625L1156.2345875,626.635009765625L1182.7007875,626.636108395625L1182.6999875,644.050709765625Z" fill="#2F2E41" fill-opacity="1"/></g><g><path d="M1181.4599560546876,412.093017578125L1168.3059560546876,442.398017578125L1157.4549560546875,616.580017578125L1184.8599560546875,615.484017578125L1192.3439560546874,532.451017578125L1215.4329560546876,458.495017578125L1228.7069560546875,540.944017578125L1234.1879560546874,613.291017578125L1256.8629560546874,614.2730175781251L1265.8999560546874,412.093017578125L1181.4599560546876,412.093017578125Z" fill="#2F2E41" fill-opacity="1"/></g><g><path d="M1247.213645703125,262.556884765625L1209.088545703125,263.510558765625L1186.705245703125,275.001284765625L1185.476845703125,359.776984765625L1171.516845703125,418.307884765625Q1258.740645703125,424.310884765625,1270.798645703125,415.54088476562504L1256.548345703125,348.674384765625L1275.660845703125,276.410384765625L1247.213645703125,262.556884765625Z" fill="#3F3D56" fill-opacity="1"/></g><g><path d="M1190.7775830078126,276.326510703125L1186.7051830078126,275.001220703125Q1173.7867830078126,283.292020703125,1175.0158830078126,303.336420703125Q1174.5317830078125,313.708720703125,1174.9940830078126,320.611720703125Q1175.5243830078125,328.529520703125,1159.6475830078125,407.210220703125L1182.6673830078125,407.210220703125L1192.5329830078124,335.95832070312497L1190.7775830078126,276.326510703125Z" fill="#3F3D56" fill-opacity="1"/></g><g><path d="M1275.0638460546875,432.665118359375C1271.3354492546875,428.226618359375,1272.5253260546874,421.49681835937497,1277.5496260546875,418.605818359375L1271.3612060546875,386.101318359375L1287.2326060546875,392.715578359375L1290.6760060546876,422.568318359375C1292.7646060546874,426.827318359375,1291.3378060546875,431.975318359375,1287.3547060546875,434.551318359375C1283.3716060546874,437.127318359375,1278.0912460546874,436.31701835937497,1275.0638460546875,432.665118359375Z" fill="#FFB7B7" fill-opacity="1"/></g><g transform="matrix(0.8968431353569031,-0.44234877824783325,0.44234877824783325,0.8968431353569031,-138.16718773522734,109.64312617967516)"><path d="M169.7003206640625,397.62385859375C165.9719238640625,393.18535859375,167.1618006640625,386.45555859374997,172.1861006640625,383.56455859375L165.9976806640625,351.06005859375L181.8690806640625,357.67431859375L185.3124806640625,387.52705859375C187.4010806640625,391.78605859375,185.9742806640625,396.93405859375,181.9911806640625,399.51005859375C178.0080806640625,402.08605859375,172.7277206640625,401.27575859374997,169.7003206640625,397.62385859375Z" fill="#FFB7B7" fill-opacity="1"/></g><g><path d="M1269.92470234375,277.422702109375L1273.99710234375,276.097412109375Q1286.91550234375,284.388182109375,1285.68640234375,304.432612109375Q1286.17060234375,314.804912109375,1285.70820234375,321.707912109375Q1285.17800234375,329.625712109375,1292.28530234375,408.306412109375L1269.26550234375,408.306412109375L1259.39990234375,337.054412109375L1269.92470234375,277.422702109375Z" fill="#3F3D56" fill-opacity="1"/></g><g><path d="M1256.572399609375,226.9898130859375C1256.572299609375,241.58611308593748,1244.739699609375,253.4187130859375,1230.1434996093749,253.4187130859375C1215.547199609375,253.4187130859375,1203.714599609375,241.58611308593748,1203.714599609375,226.9898130859375C1203.714599609375,212.3936130859375,1215.547199609375,200.5609741211375,1230.143599609375,200.5610046386375C1244.703399609375,200.5247192859375,1256.535899609375,212.2983130859375,1256.572399609375,226.8582130859375Q1256.572599609375,226.9240130859375,1256.572399609375,226.9898130859375Z" fill="#FFB7B7" fill-opacity="1"/></g><g><path d="M1203.8024949609376,191.4910880859375C1206.8984949609376,184.8336490859375,1212.8899349609376,186.1498680859375,1218.1297349609374,188.4065580859375C1224.7652349609375,186.9346880859375,1231.0760349609375,182.5281980859375,1238.2254349609375,185.1341860859375C1245.2678349609375,195.3769380859375,1268.9124349609374,192.3634080859375,1263.8820349609375,209.0387380859375C1263.8755349609376,213.0345380859375,1271.4008349609376,210.7087380859375,1270.0871349609374,217.2529380859375C1274.0735349609374,229.8470380859375,1255.6977349609374,253.6985380859375,1245.1485349609375,248.6757380859375C1247.7575349609374,243.8942380859375,1253.7173349609375,233.0337380859375,1244.6779349609376,231.9566380859375C1225.2326349609375,250.0496380859375,1242.6717349609376,197.5032380859375,1218.2392349609374,212.7846380859375C1210.1494149609375,220.1880380859375,1199.0743449609374,198.8963380859375,1203.8024949609376,191.4910880859375Z" fill="#2F2E41" fill-opacity="1"/></g><g><rect x="199" y="63" width="315.2376708984375" height="19.188650131225586" rx="0" fill="#E6E6E6" fill-opacity="1"/></g><g><rect x="200" y="63" width="315.2376708984375" height="165.52261352539062" rx="0" fill="#F2F2F2" fill-opacity="1"/></g><g><rect x="206.64703369140625" y="88.60498046875" width="302.6905212402344" height="131.48887634277344" rx="0" fill="#FFFFFF" fill-opacity="1"/></g><g><ellipse cx="289.75785398483276" cy="126.67722654342651" rx="7.165629863739014" ry="7.165629863739014" fill="#E4E4E4" fill-opacity="1"/></g><g><path d="M404.89058818359376,121.101108671875C407.57968818359376,121.093688671875,409.76358818359375,123.271578671875,409.76358818359375,125.960728671875C409.76358818359375,128.649868671875,407.57968818359376,130.827788671875,404.89058818359376,130.820288671875L329.52691818359375,130.820288671875C326.83776818359377,130.827788671875,324.6538681835938,128.649868671875,324.6538681835938,125.960728671875C324.6538681835938,123.271578671875,326.83776818359377,121.093688671875,329.52691818359375,121.101108671875L404.89058818359376,121.101108671875ZM404.89058818359376,119.910919189475L329.52691818359375,119.910919189475C326.17919818359377,119.901641841875,323.46038818359375,122.612948671875,323.46038818359375,125.960728671875C323.46038818359375,129.308468671875,326.17919818359377,132.019788671875,329.52691818359375,132.010488671875L404.89058818359376,132.010488671875C408.23828818359374,132.019788671875,410.9570881835938,129.308438671875,410.9570881835938,125.960728671875C410.9570881835938,122.612948671875,408.23828818359374,119.901641841875,404.89058818359376,119.910919189475Z" fill="#E4E4E4" fill-opacity="1"/></g><g><path d="M375.15346650390626,132.010488671875L318.42046650390625,132.010488671875C315.07928650390625,132.010488671875,312.37066650390625,129.301908671875,312.37066650390625,125.960688671875C312.37066650390625,122.619478671875,315.07928650390625,119.910888671875,318.42046650390625,119.910888671875L375.15346650390626,119.910888671875C378.4946665039063,119.910888671875,381.20326650390626,122.619478671875,381.20326650390626,125.960688671875C381.20326650390626,129.301908671875,378.4946665039063,132.010488671875,375.15346650390626,132.010488671875Z" fill="#E4E4E4" fill-opacity="1"/></g><g><ellipse cx="289.75785398483276" cy="156.4323534965515" rx="7.165629863739014" ry="7.165629863739014" fill="#E4E4E4" fill-opacity="1"/></g><g><path d="M404.89058818359376,150.856265625C407.57448818359376,150.856235625,409.75018818359376,153.031955625,409.75018818359376,155.715855625C409.75018818359376,158.399745625,407.57448818359376,160.575515625,404.89058818359376,160.575515625L329.52691818359375,160.575515625C326.84301818359376,160.575515625,324.66729818359374,158.399745625,324.66729818359374,155.715855625C324.66729818359374,153.031955625,326.84301818359376,150.856235625,329.52691818359375,150.856265625L404.89058818359376,150.856265625ZM404.89058818359376,149.6660461426L329.52691818359375,149.6660461426C326.17919818359377,149.656829835,323.46038818359375,152.368135625,323.46038818359375,155.715885625C323.46038818359375,159.063625625,326.17919818359377,161.774915625,329.52691818359375,161.765615625L404.89058818359376,161.765615625C408.23828818359374,161.774915625,410.9570881835938,159.063625625,410.9570881835938,155.715885625C410.9570881835938,152.368135625,408.23828818359374,149.656829835,404.89058818359376,149.6660461426Z" fill="#E4E4E4" fill-opacity="1"/></g><g><path d="M396.57710546875,161.7657376953125L318.42040546875,161.7657376953125C315.07916546875,161.7657376953125,312.37060546875,159.0571276953125,312.37060546875,155.7159076953125C312.37060546875,152.3746976953125,315.07922546875,149.6661071777125,318.42040546875,149.6661376953125L396.57710546875,149.6661376953125C399.91180546875,149.6753845253125,402.61020546875,152.3812876953125,402.61020546875,155.7159776953125C402.61020546875,159.0506576953125,399.91180546875,161.7565376953125,396.57710546875,161.7657376953125Z" fill="#E4E4E4" fill-opacity="1"/></g><g><ellipse cx="289.75785398483276" cy="186.187602519989" rx="7.165629863739014" ry="7.165629863739014" fill="#E4E4E4" fill-opacity="1"/></g><g><path d="M404.89061181640625,180.611362578125C407.57451181640624,180.611332578125,409.75021181640625,182.787052578125,409.75021181640625,185.470942578125C409.75021181640625,188.154812578125,407.57451181640624,190.330542578125,404.89061181640625,190.330542578125L329.52691181640625,190.330542578125C326.84302181640624,190.330542578125,324.6673018164062,188.154812578125,324.6673018164062,185.470942578125C324.6673018164062,182.787052578125,326.84302181640624,180.611332578125,329.52691181640625,180.611362578125L404.89061181640625,180.611362578125ZM404.89061181640625,179.421142578125L329.52691181640625,179.421142578125C326.18573181640625,179.421142578125,323.47711181640625,182.129732578125,323.47711181640625,185.470942578125C323.47711181640625,188.812162578125,326.18573181640625,191.520742578125,329.52691181640625,191.520742578125L404.89061181640625,191.520742578125C408.23171181640623,191.520742578125,410.94041181640625,188.812162578125,410.94041181640625,185.470942578125C410.94041181640625,182.129732578125,408.23171181640623,179.421142578125,404.89061181640625,179.421142578125Z" fill="#E4E4E4" fill-opacity="1"/></g><g><path d="M405.15904443359375,191.520742578125L318.42034443359375,191.520742578125C315.0791044335937,191.520742578125,312.37054443359375,188.812132578125,312.37054443359375,185.470912578125C312.37054443359375,182.129702578125,315.07916443359375,179.421112060525,318.42034443359375,179.421142578125L405.15904443359375,179.421142578125C408.50024443359376,179.421112060525,411.20884443359375,182.129702578125,411.20884443359375,185.470912578125C411.20884443359375,188.812132578125,408.50034443359374,191.520742578125,405.15904443359375,191.520742578125Z" fill="#E4E4E4" fill-opacity="1"/></g><g><path d="M227.8973,605.2511L216.365,615.8969L225.53,600.477Q218.3093,587.3472,206.5001,576Q182,599.5369,182,618.0385C182,636.54,192.969,643,206.5001,643C220.031,643,231,636.5399,231,618.0384C230.8475,613.6082,229.79149999999998,609.2564,227.8973,605.2511Z" fill="#F2F2F2" fill-opacity="1"/></g><g><path d="M1061.8973,529.2511L1050.365,539.8969L1059.53,524.477Q1052.3093,511.3472,1040.5001,500Q1016,523.5369,1016,542.0385C1016,560.54,1026.969,567,1040.5001,567C1054.031,567,1065,560.5399,1065,542.0384C1064.8475,537.6082,1063.7915,533.2564,1061.8973,529.2511Z" fill="#F2F2F2" fill-opacity="1"/></g><g><path d="M120.00327449,626L135.183,625.9989L138,568L120,568.311233L120.00327449,626Z" fill="#FFB6B6" fill-opacity="1"/></g><g><path d="M116,621.00121675L145.927,621L145.9282,621C156.4616,621.00128435,165,629.67259,165,640.3688L165,640.9982L116.000865279,641L116,621.00121675Z" fill="#2F2E41" fill-opacity="1"/></g><g><path d="M59.00323176,626L74.023,625.9989L77,568L59,568.311233L59.00323176,626Z" fill="#FFB6B6" fill-opacity="1"/></g><g><path d="M55,621.00121675L84.92699999999999,621L84.9282,621C95.4616,621.00128435,104,629.67259,104,640.3688L104,640.9982L55.000865279,641L55,621.00121675Z" fill="#2F2E41" fill-opacity="1"/></g><g><path d="M108.9919,406.8042C108.78659999999999,400.7422,103.2159,396.3415,97.3543,397.6107L79.62176,368L72,384.2552L90.0076,409.8819C91.349,414.6563,96.0073,417.6608,100.85079999999999,416.8757C105.6942,416.0904,109.1917,411.7636,108.9919,406.8042Z" fill="#FFB6B6" fill-opacity="1"/></g><g><path d="M21.7205,412.9812C26.0818,406.9594,23.9581,398.4459,17.2839,395.1955L22.2642,353L2.59605,362.90344L0.882067,401.4547C-1.40184,407.0985,0.882314,413.5644,6.19883,416.5052C11.5153,419.4459,18.1837,417.932,21.7205,412.9812Z" fill="#FFB6B6" fill-opacity="1"/></g><g><path d="M128.8647,370L139.52100000000002,376.36207Q148.179,381.917,145.267,420.5554Q142.356,459.1938,138.876,613.996L119.9881,613.996L89.3974,429.076L78.2354,616L58.3532,614.998Q17.7316,402.1851,35.30857,379.08874L128.8647,370Z" fill="#2F2E41" fill-opacity="1"/></g><g><path d="M29,233.70677Q80.8215,216.88234,122.6324,232.56846L119.2094,314.0156L145,377.548Q63.0086,409.66700000000003,35.68513,382.674L43.653999999999996,319.0355L29,233.70677Z" fill="#427D9D" fill-opacity="1"/></g><g><path d="M108,242.51911L118.9957,233.000662353Q126.3304,232.9145233,132.6424,244.114Q138.9544,255.3134,150.3899,291.4637L187,353.01L170.894,364L112.83021,283.4066L108,242.51911Z" fill="#427D9D" fill-opacity="1"/></g><g><path d="M30.2285,238.08031L30.9721,233Q10.69987,234.50195,8.98499,254.0629Q7.27011,273.6238,1,384.002L21.0522,388L41,274.7131L30.2285,238.08031Z" fill="#427D9D" fill-opacity="1"/></g><g><path d="M101.1294,204.0666L40.4598,215.91039999999998C37.86079,216.41469999999998,35.34043,214.73829999999998,34.82578,212.1628L29.676307,186.2376C25.87613,167.056,38.47485,148.45059,57.8213,144.673815C77.1678,140.89704,95.9411,153.37808,99.7602,172.5559L104.9097,198.4812C105.4183,201.0578,103.7273,203.5564,101.1294,204.0666Z" fill="#2F2E41" fill-opacity="1"/></g><g><ellipse cx="72.5" cy="183" rx="26.5" ry="26" fill="#FFB6B6" fill-opacity="1"/></g><g><path d="M108,173.8036L71.0864,181.2614L69.6642,175.9004L68.8152,181.7202L63.131299999999996,182.86860000000001L60.312799999999996,172.2433L58.63,183.778L47.631927,186L47.529463,185.466C44.54832,169.8409,54.45735,154.68848,69.6799,151.59467L74.8843,150.543192C90.11359999999999,147.48466,104.88210000000001,157.65133,107.8976,173.2696L108,173.8036Z" fill="#2F2E41" fill-opacity="1"/></g><g><path d="M77.09899999999999,214.3505C76.81739999999999,214.40550000000002,76.5315,214.4359,76.2447,214.4414L47.9113,215L39,169.91347L69.1423,164L68.56739999999999,165.01326C60.5691,179.11430000000001,72.2577,197.1418,79.937,206.6327C81.0901,208.0502,81.32560000000001,210.0007,80.5428,211.65019999999998C79.8962,213.0487,78.61529999999999,214.053,77.09899999999999,214.3505Z" fill="#2F2E41" fill-opacity="1"/></g></g></svg>