<svg xmlns="http://www.w3.org/2000/svg" xmlns:xlink="http://www.w3.org/1999/xlink" fill="none" version="1.1" width="1440" height="880" viewBox="0 0 1440 880"><defs><linearGradient x1="0.5147875547409058" y1="1.1540310382843018" x2="0.48964929580688477" y2="-0.09031260758638382" id="master_svg0_5_12596"><stop offset="0%" stop-color="#9BBEC8" stop-opacity="1"/><stop offset="75%" stop-color="#164863" stop-opacity="0"/></linearGradient></defs><g><g><rect x="0" y="0" width="1440" height="880" rx="0" fill="url(#master_svg0_5_12596)" fill-opacity="1"/></g><g><g><path d="M888.1184722851563,837.7619L888.1184722851563,838.8005C888.0567922851562,850.873,886.0207222851562,860.2925,882.0256622851563,866.9251C881.9691122851563,867.0228,881.9074122851563,867.1154,881.8508322851562,867.213L881.4035022851563,866.9406L880.9767762851562,866.6732C885.4088422851562,859.5109,886.9770522851562,849.387,887.0336022851562,838.857C887.0387622851563,838.5176,887.0438822851562,838.1732,887.0387622851563,837.8287C887.0233122851563,833.3708,886.7508222851562,828.8617,886.3137522851563,824.481C886.2829022851563,824.1417,886.2469222851563,823.7972,886.2109022851563,823.4527C885.6042222851562,817.6735,884.7301022851562,812.1514,883.8354822851562,807.3543C883.7737722851563,807.015,883.7069422851563,806.6756,883.6400722851563,806.3414C882.0924422851563,798.22791,880.5139772851562,792.35101,880.1540832851563,791.050171C880.1129760851562,790.890808,880.0872497551562,790.803406,880.0820922851562,790.782837L880.5705562851563,790.643982L880.5757142851562,790.638855L881.0693052851562,790.5C881.0744632851563,790.5205688,881.1618622851563,790.81366,881.3058122851562,791.358643C881.8559922851563,793.39471,883.2853722851562,798.92194,884.6889922851562,806.2128C884.7507022851562,806.5418999999999,884.8175322851563,806.8812,884.8792422851562,807.2205C885.6093422851562,811.1127,886.3240322851562,815.4625,886.8896222851563,820.0283Q887.1055622851562,821.7482,887.2752422851562,823.4218C887.3163422851562,823.7662,887.3523522851563,824.1108,887.3832422851563,824.4501Q888.0928022851563,831.5534,888.1184722851563,837.7619Z" fill="#FFFFFF" fill-opacity="1"/></g><g><path d="M470.5848419140625,789.2619L470.5848419140625,790.3005C470.5231619140625,802.373,468.4870919140625,811.7925,464.4920319140625,818.4251C464.4354819140625,818.5228,464.3737819140625,818.6154,464.3172019140625,818.713L463.8698719140625,818.4406L463.4431459140625,818.1732C467.8752119140625,811.0109,469.4434219140625,800.887,469.4999719140625,790.357C469.5051319140625,790.0176,469.5102519140625,789.6732,469.5051319140625,789.3287C469.4896819140625,784.8708,469.2171919140625,780.3617,468.7801219140625,775.981C468.7492719140625,775.6417,468.7132919140625,775.2972,468.6772719140625,774.9527C468.0705919140625,769.1735,467.1964719140625,763.6514,466.3018519140625,758.8543C466.2401419140625,758.515,466.1733119140625,758.1756,466.1064419140625,757.8414C464.5588119140625,749.72791,462.9803469140625,743.85101,462.6204529140625,742.550171C462.5793457140625,742.390808,462.5536193840625,742.303406,462.5484619140625,742.282837L463.0369259140625,742.143982L463.0420839140625,742.138855L463.5356749140625,742C463.5408329140625,742.0205688,463.6282319140625,742.31366,463.7721819140625,742.858643C464.3223619140625,744.89471,465.7517419140625,750.42194,467.1553619140625,757.7128C467.2170719140625,758.0418999999999,467.2839019140625,758.3812,467.3456119140625,758.7205C468.0757119140625,762.6127,468.7904019140625,766.9625,469.3559919140625,771.5283Q469.5719319140625,773.2482,469.7416119140625,774.9218C469.7827119140625,775.2662,469.8187219140625,775.6108,469.8496119140625,775.9501Q470.5591719140625,783.0534,470.5848419140625,789.2619Z" fill="#FFFFFF" fill-opacity="1"/></g><g><path d="M884.68899140625,806.212702578125C884.34459140625,806.258972578125,883.99489140625,806.305302578125,883.64009140625,806.341242578125C882.67359140625,806.440612578125,881.70569140625,806.490352578125,880.74029140625,806.490352578125C876.61264140625,806.495852578125,872.53635140625,805.575132578125,868.81170640625,803.796142578125C868.59576440625,804.068603578125,868.37982140625,804.341125578125,868.15869140625,804.618774578125C872.07684140625,806.531312578125,876.38022140625,807.523192578125,880.74019140625,807.518672578125C881.77409140625,807.518432578125,882.80739140625,807.463502578125,883.83549140625,807.354122578125C884.18509140625,807.318112578125,884.53469140625,807.271852578125,884.87919140625,807.220462578125C887.72279140625,806.812562578125,890.48799140625,805.975222578125,893.08009140625,804.737060578125Q892.74849140625,804.312866578125,892.43229140625,803.904113578125C889.97899140625,805.050722578125,887.36969140625,805.828672578125,884.68899140625,806.212702578125Z" fill="#FFFFFF" fill-opacity="1"/></g><g><path d="M467.15536103515626,757.712702578125C466.81096103515625,757.758972578125,466.46126103515627,757.805302578125,466.10646103515626,757.841242578125C465.13996103515626,757.940612578125,464.1720610351563,757.990352578125,463.20666103515623,757.990352578125C459.07901103515627,757.995852578125,455.00272103515624,757.075132578125,451.27807603515623,755.296142578125C451.06213403515625,755.568603578125,450.84619103515627,755.841125578125,450.62506103515625,756.118774578125C454.5432110351563,758.031312578125,458.8465910351562,759.023192578125,463.20656103515626,759.018672578125C464.2404610351563,759.018432578125,465.27376103515627,758.963502578125,466.30186103515626,758.854122578125C466.6514610351563,758.818112578125,467.0010610351562,758.771852578125,467.34556103515627,758.720462578125C470.18916103515625,758.312562578125,472.95436103515624,757.475222578125,475.54646103515626,756.237060578125Q475.2148610351563,755.812866578125,474.89866103515624,755.404113578125C472.4453610351562,756.550722578125,469.83606103515626,757.328672578125,467.15536103515626,757.712702578125Z" fill="#FFFFFF" fill-opacity="1"/></g><g><path d="M887.2752296875,823.421785546875Q886.7431296875,823.452685546875,886.2109296875,823.452685546875C886.1029296875,823.457785546875,885.9898296875,823.457785546875,885.8818296875,823.457785546875C876.8040296875,823.457885546875,868.3005096875,819.016055546875,863.1147456875,811.565185546875C862.9090876875,811.868530546875,862.7034296875,812.171874546875,862.5029296875,812.480346546875C867.9063996875,820.016415546875,876.6101296875,824.485985546875,885.8818296875,824.485985546875C886.0258296875,824.485985546875,886.1697296875,824.485985546875,886.3137296875,824.480885546875C886.6736296875,824.475785546875,887.0284296875,824.465485546875,887.3831296875,824.450085546875C892.8729296875,824.168785546875,898.1654296875,822.312485546875,902.6281296875,819.102785546875C902.4635296875,818.799435546875,902.2990296875,818.496095546875,902.1293296875,818.192745546875C897.7922296875,821.343995546875,892.6299296875,823.161285546875,887.2752296875,823.421785546875Z" fill="#FFFFFF" fill-opacity="1"/></g><g><path d="M469.7415993164062,774.921785546875Q469.20949931640627,774.952685546875,468.6772993164062,774.952685546875C468.5692993164063,774.957785546875,468.45619931640624,774.957785546875,468.34819931640624,774.957785546875C459.27039931640627,774.957885546875,450.76687931640623,770.516055546875,445.5811153164062,763.065185546875C445.37545731640625,763.368530546875,445.1697993164062,763.671874546875,444.96929931640625,763.980346546875C450.3727693164063,771.516415546875,459.0764993164062,775.985985546875,468.34819931640624,775.985985546875C468.49219931640624,775.985985546875,468.6360993164063,775.985985546875,468.7800993164062,775.980885546875C469.13999931640626,775.975785546875,469.4947993164063,775.965485546875,469.84949931640625,775.950085546875C475.33929931640625,775.668785546875,480.6317993164063,773.812485546875,485.09449931640626,770.602785546875C484.92989931640625,770.299435546875,484.7653993164063,769.996095546875,484.59569931640624,769.692745546875C480.2585993164063,772.843995546875,475.09629931640626,774.661285546875,469.7415993164062,774.921785546875Z" fill="#FFFFFF" fill-opacity="1"/></g><g><path d="M888.1184303710937,837.76186171875C887.7585303710938,837.79276171875,887.3987303710937,837.81326171875,887.0387303710937,837.82876171875C886.6531303710938,837.84416171875,886.2675303710937,837.85446171875,885.8819303710937,837.85446171875C873.5379303710938,837.84016171875,862.6801803710938,829.69166171875,859.2174683710938,817.84326171875C858.9860843710937,818.25976571875,858.7546993710938,818.67108171875,858.5336303710938,819.08758171875C862.4295303710937,830.89146171875,873.4518303710937,838.86956171875,885.8819303710937,838.88286171875C886.2675303710937,838.88286171875,886.6531303710938,838.87766171875,887.0336303710938,838.85716171875C887.3987303710937,838.84676171875,887.7586303710938,838.82626171875,888.1185303710937,838.80056171875C895.3882303710938,838.23176171875,902.1702303710938,834.92166171875,907.0911303710938,829.54046171875C906.9831303710937,829.15996171875,906.8597303710937,828.78466171875,906.7363303710938,828.40416171875C901.9833303710938,833.82576171875,895.3051303710938,837.18236171875,888.1184303710937,837.76186171875Z" fill="#FFFFFF" fill-opacity="1"/></g><g><path d="M470.5848,789.26186171875C470.2249,789.29276171875,469.8651,789.31326171875,469.50509999999997,789.32876171875C469.1195,789.34416171875,468.7339,789.35446171875,468.3483,789.35446171875C456.0043,789.34016171875,445.14655,781.19166171875,441.683838,769.34326171875C441.452454,769.75976571875,441.221069,770.17108171875,441,770.58758171875C444.8959,782.39146171875,455.9182,790.36956171875,468.3483,790.38286171875C468.7339,790.38286171875,469.1195,790.37766171875,469.5,790.35716171875C469.8651,790.34676171875,470.225,790.32626171875,470.5849,790.30056171875C477.8546,789.73176171875,484.6366,786.42166171875,489.5575,781.04046171875C489.4495,780.65996171875,489.3261,780.28466171875,489.2027,779.90416171875C484.4497,785.32576171875,477.7715,788.68236171875,470.5848,789.26186171875Z" fill="#FFFFFF" fill-opacity="1"/></g><g><path d="M1398.717746875,833.432666796875L1380.847146875,834.463166796875L1400.073046875,827.513666796875Q1403.172646875,810.721666796875,1400.932746875,792.178466796875Q1362.302446875,795.178466796875,1348.947326875,811.476166796875C1335.592166875,827.773766796875,1340.617797875,841.403766796875,1352.569546875,851.197566796875C1364.521046875,860.991266796875,1378.872846875,863.240066796875,1392.228046875,846.942466796875C1395.291146875,842.929666796875,1397.499746875,838.331866796875,1398.717746875,833.432666796875Z" fill="#F2F2F2" fill-opacity="1"/></g><g><path d="M704.7197,783.039112109375L686.8491,784.069612109375L706.075,777.120112109375Q709.1746,760.328112109375,706.9347,741.784912109375Q668.3044,744.784912109375,654.94928,761.082612109375C641.59412,777.380212109375,646.619751,791.010212109375,658.5715,800.804012109375C670.523,810.597712109375,684.8748,812.846512109375,698.23,796.548912109375C701.2931,792.536112109375,703.5017,787.938312109375,704.7197,783.039112109375Z" fill="#F2F2F2" fill-opacity="1"/></g><g><path d="M1377.8113685546875,832.8242546875L1377.1531685546875,833.6275546875C1369.4535685546875,842.9262546875,1361.9083885546875,848.9215546875,1354.6143795546875,851.5195546875C1354.5087275546875,851.5593546875,1354.4024045546876,851.5917546875,1354.2966305546875,851.6314546875L1354.1233515546876,851.1372546875L1353.9627685546875,850.6599546875C1361.9304785546874,847.9291546875,1369.5601685546876,841.0926546875,1376.2781685546875,832.9837546875C1376.4971685546875,832.7245546875,1376.7195685546876,832.4613546875,1376.9338685546875,832.1916546875C1379.7474685546874,828.7338546875,1382.3946685546875,825.0734546875,1384.8332685546875,821.4080546875C1385.0244685546875,821.1260546875,1385.2149685546874,820.8367546875,1385.4054685546876,820.5474546875C1388.5992685546876,815.6928546875,1391.4231685546874,810.8676546875,1393.7717685546875,806.5901546875C1393.9390685546875,806.2885546875,1394.1024685546874,805.9836546875,1394.2626685546875,805.6828546875C1398.2080685546875,798.4263946875,1400.7120685546874,792.8802446875,1401.2581685546875,791.6459956875C1401.3273685546876,791.4966426875,1401.3628685546876,791.4127196875,1401.3719685546876,791.3935546875L1401.8377685546875,791.5957636875L1401.8450685546875,791.5950316875L1402.3148685546876,791.8005366875C1402.3057685546876,791.8197016875,1402.1876685546874,792.1018066875,1401.9534685546876,792.6145646875C1401.0884685546876,794.5380846875,1398.6907685546876,799.7192946875,1395.1553685546876,806.2482546875C1394.9945685546875,806.5418546875,1394.8310685546876,806.8467546875,1394.6637685546875,807.1483546875C1392.7614685546876,810.6215546875,1390.5572685546874,814.4390546875,1388.1008685546874,818.3290546875Q1387.1777685546874,819.7961546875,1386.2482685546875,821.1982546875C1386.0617685546874,821.4907546875,1385.8712685546875,821.7800546875,1385.6799685546875,822.0620546875Q1381.7266685546874,828.0058546875,1377.8113685546875,832.8242546875Z" fill="#FFFFFF" fill-opacity="1"/></g><g><path d="M683.8133216796875,782.4307L683.1551216796875,783.234C675.4555216796875,792.5327,667.9103416796875,798.528,660.6163326796875,801.126C660.5106806796875,801.1658,660.4043576796875,801.1982,660.2985836796875,801.2379L660.1253046796875,800.7437L659.9647216796875,800.2664C667.9324316796875,797.5356,675.5621216796875,790.6991,682.2801216796875,782.5902C682.4991216796875,782.331,682.7215216796875,782.0678,682.9358216796875,781.7981C685.7494216796875,778.3403,688.3966216796875,774.6799,690.8352216796875,771.0145C691.0264216796875,770.7325,691.2169216796875,770.4432,691.4074216796874,770.1539C694.6012216796875,765.2993,697.4251216796875,760.4741,699.7737216796875,756.1966C699.9410216796875,755.895,700.1044216796874,755.5901,700.2646216796875,755.2893C704.2100216796875,748.03284,706.7140216796874,742.48669,707.2601216796875,741.252441C707.3293216796875,741.103088,707.3648216796875,741.019165,707.3739216796876,741L707.8397216796875,741.202209L707.8470216796875,741.201477L708.3168216796875,741.406982C708.3077216796875,741.426147,708.1896216796875,741.708252,707.9554216796874,742.22101C707.0904216796876,744.14453,704.6927216796875,749.32574,701.1573216796875,755.8547C700.9965216796875,756.1483,700.8330216796875,756.4532,700.6657216796875,756.7548C698.7634216796876,760.228,696.5592216796875,764.0455,694.1028216796875,767.9355Q693.1797216796875,769.4026,692.2502216796875,770.8047C692.0637216796875,771.0972,691.8732216796875,771.3865,691.6819216796875,771.6685Q687.7286216796875,777.6123,683.8133216796875,782.4307Z" fill="#FFFFFF" fill-opacity="1"/></g><g><path d="M1395.1554828125,806.248273828125C1394.8596828125,806.065673828125,1394.5599828125,805.879873828125,1394.2626828125,805.682873828125C1393.4546828125,805.148973828125,1392.6745028125,804.574073828125,1391.9251728125,803.960203828125C1388.7291228125,801.348263828125,1386.1597328125,798.052493828125,1384.4063728125,794.315673828125C1384.0666508125,794.389587428125,1383.7268678125,794.463500828125,1383.3798828125,794.538085828125C1385.1982428125,798.500853828125,1387.8981328125,801.995663828125,1391.2733728125,804.755573828125C1392.0733028125,805.410673828125,1392.9072828125,806.023073828125,1393.7717828125,806.590173828125C1394.0649828125,806.783973828125,1394.3647828125,806.969773828125,1394.6637828125,807.148273828125C1397.1217828125,808.635173828125,1399.7912828125,809.740173828125,1402.5810828125,810.425373828125Q1402.5933828125,809.887173828125,1402.6078828125,809.370573828125C1399.9834828125,808.702373828125,1397.4722828125,807.650273828125,1395.1554828125,806.248273828125Z" fill="#FFFFFF" fill-opacity="1"/></g><g><path d="M701.1574359375,755.854719140625C700.8616359375,755.672119140625,700.5619359375,755.486319140625,700.2646359375,755.289319140625C699.4566359375,754.755419140625,698.6764559375,754.180519140625,697.9271259375,753.566649140625C694.7310759375,750.954709140625,692.1616859375,747.658939140625,690.4083259375,743.922119140625C690.0686039375,743.996032740625,689.7288209375,744.069946140625,689.3818359375,744.144531140625C691.2001959375,748.107299140625,693.9000859375,751.602109140625,697.2753259375,754.362019140625C698.0752559375,755.017119140625,698.9092359375,755.629519140625,699.7737359375,756.196619140625C700.0669359375,756.390419140625,700.3667359375,756.576219140625,700.6657359375,756.754719140625C703.1237359375,758.241619140625,705.7932359375,759.346619140625,708.5830359375,760.031819140625Q708.5953359375,759.493619140625,708.6098359375,758.977019140625C705.9854359375,758.308819140625,703.4742359375,757.256719140625,701.1574359375,755.854719140625Z" fill="#FFFFFF" fill-opacity="1"/></g><g><path d="M1386.2483244140626,821.1982671875Q1385.8171244140624,820.8847671875,1385.4055244140625,820.5474671875C1385.3187244140624,820.4830671875,1385.2312244140626,820.4112671875,1385.1477244140624,820.3428671875C1378.1260344140626,814.5892671875,1374.3641354140625,805.7637971875,1375.0756844140626,796.7138671875C1374.7243654140625,796.8181761875,1374.3729854140624,796.9224241875,1374.0223999140626,797.0339351875C1373.4249874140626,806.2871071875,1377.3241544140626,815.2609671875,1384.4959244140625,821.1382671875C1384.6073244140625,821.2295671875,1384.7186244140626,821.3207671875,1384.8332244140624,821.4080671875C1385.1148244140625,821.6321671875,1385.3958244140624,821.8490671875,1385.6800244140625,822.0620671875C1390.1043244140626,825.3240671875,1395.3747244140625,827.2427671875,1400.8608244140626,827.5886671875C1400.9258244140624,827.2497671875,1400.9908244140624,826.9108671875,1401.0518244140626,826.5686671875C1395.6999244140625,826.2570671875,1390.5551244140624,824.3906671875,1386.2483244140626,821.1982671875Z" fill="#FFFFFF" fill-opacity="1"/></g><g><path d="M692.2502775390625,770.8047125Q691.8190775390625,770.4912125,691.4074775390625,770.1539125C691.3206775390624,770.0895125,691.2331775390625,770.0177125,691.1496775390625,769.9493125C684.1279875390625,764.1957125,680.3660885390625,755.3702425,681.0776375390625,746.3203125C680.7263185390625,746.4246215,680.3749385390626,746.5288695,680.0243530390625,746.6403805C679.4269405390625,755.8935525,683.3261075390625,764.8674125,690.4978775390625,770.7447125C690.6092775390625,770.8360125,690.7205775390624,770.9272125,690.8351775390624,771.0145125C691.1167775390625,771.2386125,691.3977775390625,771.4555125,691.6819775390625,771.6685125C696.1062775390625,774.9305125,701.3766775390625,776.8492125,706.8627775390624,777.1951125C706.9277775390625,776.8562125,706.9927775390624,776.5173125,707.0537775390625,776.1751125C701.7018775390625,775.8635125,696.5570775390624,773.9971125,692.2502775390625,770.8047125Z" fill="#FFFFFF" fill-opacity="1"/></g><g><path d="M1377.811293359375,832.824265234375C1377.513393359375,832.6199652343751,1377.221993359375,832.407665234375,1376.933793359375,832.191565234375C1376.625893359375,831.959065234375,1376.320993359375,831.722565234375,1376.022793359375,831.478165234375C1366.483943359375,823.643165234375,1363.250483359375,810.458565234375,1368.082093359375,799.099365234375C1367.639163359375,799.274841234375,1367.199463359375,799.446350234375,1366.764463359375,799.628357234375C1362.296263359375,811.227565234375,1365.764953359375,824.384665234375,1375.370993359375,832.273465234375C1375.669293359375,832.517965234375,1375.970793359375,832.758365234375,1376.278093359375,832.983565234375C1376.566993359375,833.207065234375,1376.858393359375,833.419265234375,1377.153093359375,833.627465234375C1383.136493359375,837.795365234375,1390.480293359375,839.533665234375,1397.697193359375,838.490265234375C1397.854893359375,838.127565234375,1397.997293359375,837.759065234375,1398.142993359375,837.386565234375C1391.030293359375,838.567365234375,1383.737393359375,836.930865234375,1377.811293359375,832.824265234375Z" fill="#FFFFFF" fill-opacity="1"/></g><g><path d="M683.813246484375,782.430710546875C683.515346484375,782.2264105468751,683.223946484375,782.014110546875,682.935746484375,781.798010546875C682.627846484375,781.565510546875,682.322946484375,781.329010546875,682.024746484375,781.084610546875C672.485896484375,773.249610546875,669.252436484375,760.065010546875,674.084046484375,748.705810546875C673.641116484375,748.881286546875,673.201416484375,749.052795546875,672.766416484375,749.234802546875C668.298216484375,760.834010546875,671.766906484375,773.991110546875,681.372946484375,781.879910546875C681.671246484375,782.124410546875,681.972746484375,782.364810546875,682.280046484375,782.590010546875C682.568946484375,782.813510546875,682.860346484375,783.025710546875,683.155046484375,783.233910546875C689.138446484375,787.401810546875,696.482246484375,789.140110546875,703.699146484375,788.096710546875C703.856846484375,787.734010546875,703.999246484375,787.365510546875,704.1449464843749,786.993010546875C697.032246484375,788.173810546875,689.739346484375,786.537310546875,683.813246484375,782.430710546875Z" fill="#FFFFFF" fill-opacity="1"/></g><g><rect x="773.34716796875" y="215.2718505859375" width="334.9814758300781" height="175.88954162597656" rx="0" fill="#F2F2F2" fill-opacity="1"/></g><g><rect x="773.142578125" y="215" width="334.9814758300781" height="20.390459060668945" rx="0" fill="#E6E6E6" fill-opacity="1"/></g><g><rect x="780.9225463867188" y="243.6578369140625" width="321.13629150390625" height="138.2318878173828" rx="0" fill="#FFFFFF" fill-opacity="1"/></g><g><ellipse cx="804.8858072757721" cy="225.1431314945221" rx="3.3729898929595947" ry="3.3729898929595947" fill="#FFFFFF" fill-opacity="1"/></g><g><ellipse cx="817.6891520023346" cy="225.1431314945221" rx="3.3729898929595947" ry="3.3729898929595947" fill="#FFFFFF" fill-opacity="1"/></g><g><ellipse cx="792.0492594242096" cy="225.1431314945221" rx="3.3729898929595947" ry="3.3729898929595947" fill="#FFFFFF" fill-opacity="1"/></g><g><ellipse cx="835.6332411766052" cy="342.2092909812927" rx="5.926209926605225" ry="5.926209926605225" fill="#E4E4E4" fill-opacity="1"/></g><g><ellipse cx="887.9813857078552" cy="326.6889052391052" rx="5.926209926605225" ry="5.926209926605225" fill="#E4E4E4" fill-opacity="1"/></g><g><ellipse cx="940.3295302391052" cy="342.2092909812927" rx="5.926209926605225" ry="5.926209926605225" fill="#E4E4E4" fill-opacity="1"/></g><g><ellipse cx="992.6776747703552" cy="263.9226698875427" rx="5.926209926605225" ry="5.926209926605225" fill="#E4E4E4" fill-opacity="1"/></g><g><ellipse cx="1045.0258193016052" cy="263.1931777000427" rx="5.926209926605225" ry="5.926209926605225" fill="#E4E4E4" fill-opacity="1"/></g><g><path d="M940.4539545898438,343.5370625L887.9809545898438,327.2340625L836.2259545898437,343.0000625L835.0409545898438,341.4190625L887.9809545898438,324.7660625L940.2049545898437,340.8820625L992.0999545898437,263.0910605L992.3089545898438,263.0060616L1044.6569545898437,262.9140625L1045.3949545898438,264.7470625L993.2549545898437,264.7550625L940.4539545898438,343.5370625Z" fill="#E4E4E4" fill-opacity="1"/></g><g><ellipse cx="878.8738260269165" cy="454.91929721832275" rx="3.174180030822754" ry="3.174180030822754" fill="#FFFFFF" fill-opacity="1"/></g><g><ellipse cx="890.922532081604" cy="454.91929721832275" rx="3.174180030822754" ry="3.174180030822754" fill="#FFFFFF" fill-opacity="1"/></g><g><ellipse cx="866.793869972229" cy="454.91929721832275" rx="3.174180030822754" ry="3.174180030822754" fill="#FFFFFF" fill-opacity="1"/></g><g><rect x="1000.9478759765625" y="287.539306640625" width="373.9265441894531" height="196.33851623535156" rx="0" fill="#E6E6E6" fill-opacity="1"/></g><g><rect x="1000.719482421875" y="287.2359619140625" width="373.9265441894531" height="22.76106071472168" rx="0" fill="#427D9D" fill-opacity="1"/></g><g><rect x="1009.3423461914062" y="316.9881591796875" width="356.5371398925781" height="155.9323272705078" rx="0" fill="#FFFFFF" fill-opacity="1"/></g><g><ellipse cx="1036.1531915664673" cy="298.5583429336548" rx="3.765130043029785" ry="3.765130043029785" fill="#FFFFFF" fill-opacity="1"/></g><g><ellipse cx="1050.4450616836548" cy="298.5583429336548" rx="3.765130043029785" ry="3.765130043029785" fill="#FFFFFF" fill-opacity="1"/></g><g><ellipse cx="1021.824273109436" cy="298.5583429336548" rx="3.765130043029785" ry="3.765130043029785" fill="#FFFFFF" fill-opacity="1"/></g><g><path d="M1190.156615625,351.156005859375C1188.623775625,351.359313859375,1187.478515625,352.666505859375,1187.478515625,354.212795859375C1187.478515625,355.759095859375,1188.623775625,357.066285859375,1190.156615625,357.269595859375L1316.409515625,357.269595859375C1317.942515625,357.066255859375,1319.087515625,355.759065859375,1319.087515625,354.212795859375C1319.087515625,352.666535859375,1317.942515625,351.359374859375,1316.409515625,351.156005859375L1190.156615625,351.156005859375Z" fill="#E6E6E6" fill-opacity="1"/></g><g><path d="M1190.156615625,423.251708984375C1188.623775625,423.455016984375,1187.478515625,424.762238984375,1187.478515625,426.308528984375C1187.478515625,427.854828984375,1188.623775625,429.161988984375,1190.156615625,429.365298984375L1316.409515625,429.365298984375C1317.942515625,429.161958984375,1319.087515625,427.854798984375,1319.087515625,426.308528984375C1319.087515625,424.762238984375,1317.942515625,423.455077984375,1316.409515625,423.251708984375L1190.156615625,423.251708984375Z" fill="#E6E6E6" fill-opacity="1"/></g><g><path d="M1190.156615625,369.4967041015625C1188.623775625,369.7000121015625,1187.478515625,371.0072041015625,1187.478515625,372.5534941015625C1187.478515625,374.0997941015625,1188.623775625,375.4069841015625,1190.156615625,375.6102941015625L1244.483715625,375.6102941015625C1246.016515625,375.4069541015625,1247.161715625,374.0997641015625,1247.161715625,372.5534941015625C1247.161715625,371.0072341015625,1246.016515625,369.7000731015625,1244.483715625,369.4967041015625L1190.156615625,369.4967041015625Z" fill="#E6E6E6" fill-opacity="1"/></g><g><path d="M1190.156555625,386.97900390625C1188.623715625,387.18237290625,1187.478515625,388.48953390625,1187.478515625,390.03579390625C1187.478515625,391.58206390625,1188.623715625,392.88922390625,1190.156555625,393.09259390625L1316.409515625,393.09259390625C1317.942515625,392.88919390625,1319.087515625,391.58203390625,1319.087515625,390.03579390625C1319.087515625,388.48956390625,1317.942515625,387.18240390625,1316.409515625,386.97900390625L1190.156555625,386.97900390625Z" fill="#E6E6E6" fill-opacity="1"/></g><g><path d="M1190.156615625,405.3197021484375C1188.623775625,405.5230101484375,1187.478515625,406.8302021484375,1187.478515625,408.3764921484375C1187.478515625,409.9227921484375,1188.623775625,411.2299821484375,1190.156615625,411.4332921484375L1244.483715625,411.4332921484375C1246.016515625,411.2299521484375,1247.161715625,409.9227621484375,1247.161715625,408.3764921484375C1247.161715625,406.8302321484375,1246.016515625,405.5230711484375,1244.483715625,405.3197021484375L1190.156615625,405.3197021484375Z" fill="#E6E6E6" fill-opacity="1"/></g><g><path d="M1116.57588984375,426.0163235546875C1118.18288984375,426.0170935546875,1119.48618984375,424.7150535546875,1119.48688984375,423.1081235546875C1119.48768984375,421.5011935546875,1118.18568984375,420.1979064936875,1116.57868984375,420.1971435546875L1057.55303984375,420.1971435546875C1055.94610984375,420.1963806156875,1054.64282226575,421.4984435546875,1054.64208984375,423.1053435546875C1054.64129638675,424.7122535546875,1055.94329984375,426.0155335546875,1057.55022984375,426.0163235546875L1116.57588984375,426.0163235546875Z" fill="#E4E4E4" fill-opacity="1"/></g><g><path d="M1116.57588984375,408.873623359375C1118.18288984375,408.873623359375,1119.48548984375,407.570953359375,1119.48548984375,405.964053359375C1119.48548984375,404.357113359375,1118.18288984375,403.054443359375,1116.57588984375,403.054443359375L1057.55303984375,403.054443359375C1055.94610984375,403.053680420375,1054.64282226575,404.355743359375,1054.64208984375,405.962643359375C1054.64129638675,407.569553359375,1055.94329984375,408.872863359375,1057.55022984375,408.873623359375L1116.57588984375,408.873623359375Z" fill="#E4E4E4" fill-opacity="1"/></g><g><path d="M1087.064255859375,354.5048828125C1097.179055859375,354.5048828125,1105.378655859375,362.7045628125,1105.378655859375,372.8193828125C1105.378655859375,382.9341828125,1097.179055859375,391.1338828125,1087.064255859375,391.1338828125C1076.949405859375,391.1338828125,1068.749694824175,382.9341828125,1068.749755859375,372.8193828125C1068.761108359375,362.7093228125,1076.954105859375,354.5162964125,1087.064255859375,354.5048828125Z" fill="#427D9D" fill-opacity="1"/></g><g><path d="M1279.86891640625,646.568926953125C1283.59731640625,642.130426953125,1282.40751640625,635.400626953125,1277.38321640625,632.509626953125L1283.57161640625,600.005126953125L1267.70019640625,606.619386953125L1264.25683640625,636.472126953125C1262.16815640625,640.731126953125,1263.59503140625,645.879126953125,1267.57812640625,648.455126953125C1271.56121640625,651.031126953125,1276.84151640625,650.220826953125,1279.86891640625,646.568926953125Z" fill="#FFB7B7" fill-opacity="1"/></g><g><path d="M1359.0048515625,846.02401171875L1345.5658615625,846.02301171875L1339.1728515625,794.18701171875L1359.0078515625,794.18798828075L1359.0048515625,846.02401171875Z" fill="#FFB7B7" fill-opacity="1"/></g><g><path d="M1362.4325314453124,859.050709765625L1319.0997314453125,859.049109765625L1319.0997314453125,858.501009765625C1319.1008911153126,849.185849765625,1326.6518514453126,841.635009765625,1335.9660314453124,841.635009765625L1335.9671314453126,841.635009765625L1362.4333314453124,841.636108395625L1362.4325314453124,859.050709765625Z" fill="#2F2E41" fill-opacity="1"/></g><g><path d="M1285.56100390625,846.02401171875L1272.12201390625,846.02301171875L1265.72900390625,794.18701171875L1285.56400390625,794.18798828075L1285.56100390625,846.02401171875Z" fill="#FFB7B7" fill-opacity="1"/></g><g><path d="M1285.6999875,859.050709765625L1242.3671875,859.049109765625L1242.3671875,858.501009765625C1242.36834717,849.185849765625,1249.9193075,841.635009765625,1259.2334875,841.635009765625L1259.2345875,841.635009765625L1285.7007875,841.636108395625L1285.6999875,859.050709765625Z" fill="#2F2E41" fill-opacity="1"/></g><g><path d="M1284.4599560546876,627.093017578125L1271.3059560546876,657.398017578125L1260.4549560546875,831.580017578125L1287.8599560546875,830.484017578125L1295.3439560546874,747.451017578125L1318.4329560546876,673.495017578125L1331.7069560546875,755.944017578125L1337.1879560546874,828.291017578125L1359.8629560546874,829.2730175781251L1368.8999560546874,627.093017578125L1284.4599560546876,627.093017578125Z" fill="#2F2E41" fill-opacity="1"/></g><g><path d="M1350.213645703125,477.556884765625L1312.088545703125,478.510558765625L1289.705245703125,490.001284765625L1288.476845703125,574.776984765625L1274.516845703125,633.307884765625Q1361.740645703125,639.310884765625,1373.798645703125,630.540884765625L1359.548345703125,563.6743847656251L1378.660845703125,491.410384765625L1350.213645703125,477.556884765625Z" fill="#3F3D56" fill-opacity="1"/></g><g><path d="M1293.7775830078126,491.326510703125L1289.7051830078126,490.001220703125Q1276.7867830078126,498.292020703125,1278.0158830078126,518.336420703125Q1277.5317830078125,528.708720703125,1277.9940830078126,535.611720703125Q1278.5243830078125,543.529520703125,1262.6475830078125,622.2102207031251L1285.6673830078125,622.2102207031251L1295.5329830078124,550.958320703125L1293.7775830078126,491.326510703125Z" fill="#3F3D56" fill-opacity="1"/></g><g><path d="M1378.0638460546875,647.665118359375C1374.3354492546875,643.226618359375,1375.5253260546874,636.496818359375,1380.5496260546875,633.605818359375L1374.3612060546875,601.101318359375L1390.2326060546875,607.715578359375L1393.6760060546876,637.568318359375C1395.7646060546874,641.827318359375,1394.3378060546875,646.975318359375,1390.3547060546875,649.551318359375C1386.3716060546874,652.127318359375,1381.0912460546874,651.317018359375,1378.0638460546875,647.665118359375Z" fill="#FFB7B7" fill-opacity="1"/></g><g transform="matrix(0.8968431353569031,-0.44234877824783325,0.44234877824783325,0.8968431353569031,-222.6470180002725,177.38377623746783)"><path d="M272.7003206640625,612.62385859375C268.9719238640625,608.18535859375,270.1618006640625,601.45555859375,275.1861006640625,598.56455859375L268.9976806640625,566.06005859375L284.8690806640625,572.67431859375L288.3124806640625,602.52705859375C290.4010806640625,606.78605859375,288.9742806640625,611.93405859375,284.9911806640625,614.51005859375C281.0080806640625,617.08605859375,275.7277206640625,616.27575859375,272.7003206640625,612.62385859375Z" fill="#FFB7B7" fill-opacity="1"/></g><g><path d="M1372.92470234375,492.422702109375L1376.99710234375,491.097412109375Q1389.91550234375,499.388182109375,1388.68640234375,519.432612109375Q1389.17060234375,529.804912109375,1388.70820234375,536.707912109375Q1388.17800234375,544.625712109375,1395.28530234375,623.3064121093751L1372.26550234375,623.3064121093751L1362.39990234375,552.054412109375L1372.92470234375,492.422702109375Z" fill="#3F3D56" fill-opacity="1"/></g><g><path d="M1359.572399609375,441.9898130859375C1359.572299609375,456.5861130859375,1347.739699609375,468.4187130859375,1333.1434996093749,468.4187130859375C1318.547199609375,468.4187130859375,1306.714599609375,456.5861130859375,1306.714599609375,441.9898130859375C1306.714599609375,427.3936130859375,1318.547199609375,415.5609741211375,1333.143599609375,415.5610046386375C1347.703399609375,415.5247192859375,1359.535899609375,427.2983130859375,1359.572399609375,441.8582130859375Q1359.572599609375,441.9240130859375,1359.572399609375,441.9898130859375Z" fill="#FFB7B7" fill-opacity="1"/></g><g><path d="M1306.8024949609376,406.4910880859375C1309.8984949609376,399.8336490859375,1315.8899349609376,401.1498680859375,1321.1297349609374,403.4065580859375C1327.7652349609375,401.9346880859375,1334.0760349609375,397.5281980859375,1341.2254349609375,400.1341860859375C1348.2678349609375,410.3769380859375,1371.9124349609374,407.3634080859375,1366.8820349609375,424.0387380859375C1366.8755349609376,428.03453808593747,1374.4008349609376,425.7087380859375,1373.0871349609374,432.2529380859375C1377.0735349609374,444.84703808593747,1358.6977349609374,468.6985380859375,1348.1485349609375,463.6757380859375C1350.7575349609374,458.8942380859375,1356.7173349609375,448.0337380859375,1347.6779349609376,446.95663808593747C1328.2326349609375,465.0496380859375,1345.6717349609376,412.5032380859375,1321.2392349609374,427.7846380859375C1313.1494149609375,435.1880380859375,1302.0743449609374,413.8963380859375,1306.8024949609376,406.4910880859375Z" fill="#2F2E41" fill-opacity="1"/></g><g><rect x="302" y="278" width="315.2376708984375" height="19.188650131225586" rx="0" fill="#E6E6E6" fill-opacity="1"/></g><g><rect x="303" y="278" width="315.2376708984375" height="165.52261352539062" rx="0" fill="#F2F2F2" fill-opacity="1"/></g><g><rect x="309.64703369140625" y="303.60498046875" width="302.6905212402344" height="131.48887634277344" rx="0" fill="#FFFFFF" fill-opacity="1"/></g><g><ellipse cx="392.75785398483276" cy="341.6772265434265" rx="7.165629863739014" ry="7.165629863739014" fill="#E4E4E4" fill-opacity="1"/></g><g><path d="M507.89058818359376,336.101108671875C510.57968818359376,336.093688671875,512.7635881835938,338.271578671875,512.7635881835938,340.960728671875C512.7635881835938,343.649868671875,510.57968818359376,345.827788671875,507.89058818359376,345.820288671875L432.52691818359375,345.820288671875C429.83776818359377,345.827788671875,427.6538681835938,343.649868671875,427.6538681835938,340.960728671875C427.6538681835938,338.271578671875,429.83776818359377,336.093688671875,432.52691818359375,336.101108671875L507.89058818359376,336.101108671875ZM507.89058818359376,334.910919189475L432.52691818359375,334.910919189475C429.17919818359377,334.901641841875,426.46038818359375,337.612948671875,426.46038818359375,340.960728671875C426.46038818359375,344.308468671875,429.17919818359377,347.019788671875,432.52691818359375,347.010488671875L507.89058818359376,347.010488671875C511.23828818359374,347.019788671875,513.9570881835938,344.308438671875,513.9570881835938,340.960728671875C513.9570881835938,337.612948671875,511.23828818359374,334.901641841875,507.89058818359376,334.910919189475Z" fill="#E4E4E4" fill-opacity="1"/></g><g><path d="M478.15346650390626,347.010488671875L421.42046650390625,347.010488671875C418.07928650390625,347.010488671875,415.37066650390625,344.301908671875,415.37066650390625,340.960688671875C415.37066650390625,337.619478671875,418.07928650390625,334.910888671875,421.42046650390625,334.910888671875L478.15346650390626,334.910888671875C481.4946665039063,334.910888671875,484.20326650390626,337.619478671875,484.20326650390626,340.960688671875C484.20326650390626,344.301908671875,481.4946665039063,347.010488671875,478.15346650390626,347.010488671875Z" fill="#E4E4E4" fill-opacity="1"/></g><g><ellipse cx="392.75785398483276" cy="371.4323534965515" rx="7.165629863739014" ry="7.165629863739014" fill="#E4E4E4" fill-opacity="1"/></g><g><path d="M507.89058818359376,365.856265625C510.57448818359376,365.856235625,512.7501881835938,368.031955625,512.7501881835938,370.715855625C512.7501881835938,373.399745625,510.57448818359376,375.575515625,507.89058818359376,375.575515625L432.52691818359375,375.575515625C429.84301818359376,375.575515625,427.66729818359374,373.399745625,427.66729818359374,370.715855625C427.66729818359374,368.031955625,429.84301818359376,365.856235625,432.52691818359375,365.856265625L507.89058818359376,365.856265625ZM507.89058818359376,364.6660461426L432.52691818359375,364.6660461426C429.17919818359377,364.656829835,426.46038818359375,367.368135625,426.46038818359375,370.715885625C426.46038818359375,374.063625625,429.17919818359377,376.774915625,432.52691818359375,376.765615625L507.89058818359376,376.765615625C511.23828818359374,376.774915625,513.9570881835938,374.063625625,513.9570881835938,370.715885625C513.9570881835938,367.368135625,511.23828818359374,364.656829835,507.89058818359376,364.6660461426Z" fill="#E4E4E4" fill-opacity="1"/></g><g><path d="M499.57710546875,376.7657376953125L421.42040546875,376.7657376953125C418.07916546875,376.7657376953125,415.37060546875,374.0571276953125,415.37060546875,370.7159076953125C415.37060546875,367.3746976953125,418.07922546875,364.6661071777125,421.42040546875,364.6661376953125L499.57710546875,364.6661376953125C502.91180546875,364.6753845253125,505.61020546875,367.3812876953125,505.61020546875,370.7159776953125C505.61020546875,374.0506576953125,502.91180546875,376.7565376953125,499.57710546875,376.7657376953125Z" fill="#E4E4E4" fill-opacity="1"/></g><g><ellipse cx="392.75785398483276" cy="401.187602519989" rx="7.165629863739014" ry="7.165629863739014" fill="#E4E4E4" fill-opacity="1"/></g><g><path d="M507.89061181640625,395.611362578125C510.57451181640624,395.611332578125,512.7502118164062,397.787052578125,512.7502118164062,400.470942578125C512.7502118164062,403.154812578125,510.57451181640624,405.330542578125,507.89061181640625,405.330542578125L432.52691181640625,405.330542578125C429.84302181640624,405.330542578125,427.6673018164062,403.154812578125,427.6673018164062,400.470942578125C427.6673018164062,397.787052578125,429.84302181640624,395.611332578125,432.52691181640625,395.611362578125L507.89061181640625,395.611362578125ZM507.89061181640625,394.421142578125L432.52691181640625,394.421142578125C429.18573181640625,394.421142578125,426.47711181640625,397.129732578125,426.47711181640625,400.470942578125C426.47711181640625,403.812162578125,429.18573181640625,406.520742578125,432.52691181640625,406.520742578125L507.89061181640625,406.520742578125C511.23171181640623,406.520742578125,513.9404118164063,403.812162578125,513.9404118164063,400.470942578125C513.9404118164063,397.129732578125,511.23171181640623,394.421142578125,507.89061181640625,394.421142578125Z" fill="#E4E4E4" fill-opacity="1"/></g><g><path d="M508.15904443359375,406.520742578125L421.42034443359375,406.520742578125C418.0791044335937,406.520742578125,415.37054443359375,403.812132578125,415.37054443359375,400.470912578125C415.37054443359375,397.129702578125,418.07916443359375,394.421112060525,421.42034443359375,394.421142578125L508.15904443359375,394.421142578125C511.50024443359376,394.421112060525,514.2088444335938,397.129702578125,514.2088444335938,400.470912578125C514.2088444335938,403.812132578125,511.50034443359374,406.520742578125,508.15904443359375,406.520742578125Z" fill="#E4E4E4" fill-opacity="1"/></g><g><path d="M330.8973,820.2511L319.365,830.8969L328.53,815.477Q321.3093,802.3472,309.5001,791Q285,814.5369,285,833.0385C285,851.54,295.969,858,309.5001,858C323.031,858,334,851.5399,334,833.0384C333.84749999999997,828.6082,332.7915,824.2564,330.8973,820.2511Z" fill="#F2F2F2" fill-opacity="1"/></g><g><path d="M1164.8973,744.2511L1153.365,754.8969L1162.53,739.477Q1155.3093,726.3472,1143.5001,715Q1119,738.5369,1119,757.0385C1119,775.54,1129.969,782,1143.5001,782C1157.031,782,1168,775.5399,1168,757.0384C1167.8475,752.6082,1166.7915,748.2564,1164.8973,744.2511Z" fill="#F2F2F2" fill-opacity="1"/></g><g><path d="M223.00327449,841L238.183,840.9989L241,783L223,783.311233L223.00327449,841Z" fill="#FFB6B6" fill-opacity="1"/></g><g><path d="M219,836.00121675L248.927,836L248.9282,836C259.4616,836.00128435,268,844.67259,268,855.3688L268,855.9982L219.000865279,856L219,836.00121675Z" fill="#2F2E41" fill-opacity="1"/></g><g><path d="M162.00323176,841L177.023,840.9989L180,783L162,783.311233L162.00323176,841Z" fill="#FFB6B6" fill-opacity="1"/></g><g><path d="M158,836.00121675L187.927,836L187.9282,836C198.4616,836.00128435,207,844.67259,207,855.3688L207,855.9982L158.000865279,856L158,836.00121675Z" fill="#2F2E41" fill-opacity="1"/></g><g><path d="M211.9919,621.8042C211.7866,615.7422,206.2159,611.3415,200.3543,612.6107L182.62176,583L175,599.2552L193.0076,624.8819C194.349,629.6563,199.0073,632.6608,203.8508,631.8757C208.6942,631.0904,212.1917,626.7636,211.9919,621.8042Z" fill="#FFB6B6" fill-opacity="1"/></g><g><path d="M124.7205,627.9812C129.0818,621.9594,126.9581,613.4459,120.2839,610.1955L125.2642,568L105.59605,577.90344L103.882067,616.4547C101.59816000000001,622.0985000000001,103.882314,628.5644,109.19883,631.5052000000001C114.5153,634.4458999999999,121.1837,632.932,124.7205,627.9812Z" fill="#FFB6B6" fill-opacity="1"/></g><g><path d="M231.8647,585L242.52100000000002,591.36207Q251.179,596.917,248.267,635.5554Q245.356,674.1938,241.876,828.996L222.9881,828.996L192.3974,644.076L181.2354,831L161.35320000000002,829.998Q120.7316,617.1851,138.30857,594.08874L231.8647,585Z" fill="#2F2E41" fill-opacity="1"/></g><g><path d="M132,448.70677Q183.82150000000001,431.88234,225.63240000000002,447.56846L222.20940000000002,529.0156L248,592.548Q166.0086,624.667,138.68513,597.674L146.654,534.0355L132,448.70677Z" fill="#427D9D" fill-opacity="1"/></g><g><path d="M211,457.51911L221.9957,448.000662353Q229.3304,447.9145233,235.6424,459.114Q241.9544,470.3134,253.3899,506.4637L290,568.01L273.894,579L215.83021,498.4066L211,457.51911Z" fill="#427D9D" fill-opacity="1"/></g><g><path d="M133.2285,453.08031L133.9721,448Q113.69987,449.50195,111.98499,469.0629Q110.27011,488.6238,104,599.002L124.0522,603L144,489.7131L133.2285,453.08031Z" fill="#427D9D" fill-opacity="1"/></g><g><path d="M204.1294,419.0666L143.4598,430.9104C140.86079,431.4147,138.34043,429.7383,137.82578,427.1628L132.676307,401.2376C128.87613,382.056,141.47485,363.45059,160.8213,359.673815C180.1678,355.89704,198.9411,368.37808,202.7602,387.5559L207.9097,413.4812C208.4183,416.0578,206.7273,418.5564,204.1294,419.0666Z" fill="#2F2E41" fill-opacity="1"/></g><g><ellipse cx="175.5" cy="398" rx="26.5" ry="26" fill="#FFB6B6" fill-opacity="1"/></g><g><path d="M211,388.8036L174.0864,396.2614L172.6642,390.9004L171.8152,396.7202L166.1313,397.8686L163.3128,387.2433L161.63,398.778L150.631927,401L150.529463,400.466C147.54832,384.8409,157.45735,369.68848,172.6799,366.59467L177.8843,365.543192C193.1136,362.48466,207.8821,372.65133,210.8976,388.2696L211,388.8036Z" fill="#2F2E41" fill-opacity="1"/></g><g><path d="M180.099,429.3505C179.8174,429.4055,179.5315,429.4359,179.2447,429.4414L150.9113,430L142,384.91347L172.1423,379L171.5674,380.01326C163.5691,394.1143,175.2577,412.1418,182.937,421.6327C184.0901,423.0502,184.3256,425.0007,183.5428,426.6502C182.8962,428.0487,181.6153,429.053,180.099,429.3505Z" fill="#2F2E41" fill-opacity="1"/></g></g></g></svg>