<svg xmlns="http://www.w3.org/2000/svg" xmlns:xlink="http://www.w3.org/1999/xlink" fill="none" version="1.1" width="492" height="543" viewBox="0 0 492 543"><g><g><g><g><path d="M402.19887837524413,129.27993773498534L431.4756283752441,113.28203773498535L431.4756283752441,158.99043773498533L397.61642837524414,158.99043773498533L402.19887837524413,129.27993773498534Z" fill="#2E2E41" fill-opacity="1"/></g><g><path d="M437.7523786621094,139.4706352824707L440.4543786621094,161.9107082824707L420.98117866210936,200.5911082824707L408.8943786621094,164.5899082824707L414.5768986621094,138.7252082824707L437.7523786621094,139.4706352824707Z" fill="#FDB4B4" fill-opacity="1"/></g><g><rect x="407.83864974975586" y="163.25032806396484" width="33.622982025146484" height="40.52225112915039" rx="0" fill="#427D9D" fill-opacity="1"/></g><g><path d="M469.1987264770508,377.84478759765625L477.9777264770508,508.46678759765626L456.3960264770508,509.1967875976562L427.8643264770508,378.93937759765623L469.1987264770508,377.84478759765625Z" fill="#2E2E41" fill-opacity="1"/></g><g><path d="M416.8906466217041,377.1151123046875L425.6696466217041,507.7371123046875L404.0879466217041,508.4671123046875L375.5561466217041,378.2097223046875L416.8906466217041,377.1151123046875Z" fill="#2E2E41" fill-opacity="1"/></g><g><path d="M492,405.54934170532226L491.486,405.54734170532225L354,405.0993417053223L354.123383,404.61434170532226L389.4706,264.92234170532225L380.6162,194.42464170532227C378.9386,181.06624170532226,386.1078,168.43964170532226,398.4561,163.00583170532227L402.9139,161.04435170532227L411.3829,154.90115970532227L422.21680000000003,193.08694170532226L439.5662,154.87134170532227L447.209,162.49367170532227L464.445,167.05534170532226C475.18899999999996,169.89814170532227,482.149,180.32434170532227,480.635,191.30744170532228L480.617,191.38384170532225L454.295,266.3013417053223L492,405.54934170532226Z" fill="#E8E9EA" fill-opacity="1"/></g><g><path d="M405.4734187225342,506.98236083984375L428.50111872253416,508.13681083984375L430.5981187225342,520.3515608398437Q446.9788187225342,541.6078608398437,427.3004187225342,540.6212608398438C407.62201872253416,539.6347608398437,374.0158057225342,544.0048608398438,374.3962278225342,536.4553608398437Q374.77664972253416,528.9058608398437,399.22441872253415,525.5904608398438L405.4734187225342,506.98236083984375Z" fill="#2E2E41" fill-opacity="1"/></g><g><path d="M456.50675345458984,505.6427917480469L479.5344534545898,506.7972417480469L481.63145345458986,519.0119917480469Q498.01215345458985,540.2682917480469,478.33375345458984,539.2816917480469C458.65545345458986,538.2951917480468,425.04916445458986,542.6652917480469,425.42958650458985,535.1157917480468Q425.8100084545898,527.5662917480469,450.2577534545898,524.2508917480469L456.50675345458984,505.6427917480469Z" fill="#2E2E41" fill-opacity="1"/></g><g><path d="M477.59429530029297,330.7929129394531C477.05839530029294,339.97871293945315,471.872295300293,347.14881293945314,466.011615300293,346.80771293945315C460.150895300293,346.46651293945314,455.83590130029296,338.74411293945315,456.37321000029294,329.5551129394531C456.53740130029297,325.8815129394531,457.58112530029297,322.30051293945314,459.41715530029296,319.1118129394531L462.18052530029297,280.2195129394531L480.450195300293,281.90203293945314L475.786295300293,320.06431293945315C477.23929530029295,323.4451129394531,477.85929530029296,327.1240129394531,477.59429530029297,330.7929129394531Z" fill="#FDB4B4" fill-opacity="1"/></g><g><path d="M383.70829783325195,327.2998513427734C382.976497833252,336.47235134277344,377.63859783325194,343.53065134277347,371.78652783325197,343.06515134277345C365.93442783325196,342.5996513427734,361.78518283325195,334.78735134277343,362.51848513325194,325.61185134277343C362.7610118332519,321.9425513427734,363.88093783325195,318.3845513427734,365.7846078332519,315.2355513427734L369.37730783325196,276.41075134277344L387.60689783325194,278.4808013427734L382.12969783325195,316.5353513427734C383.51019783325194,319.9463513427734,384.05159783325195,323.63745134277343,383.70829783325195,327.2998513427734Z" fill="#FDB4B4" fill-opacity="1"/></g><g><path d="M480.5362518310547,315.5027100219727L454.0028218310547,313.81271002197263L454.0350118310547,313.4167100219727L459.3351018310547,247.23521002197265L450.8684478310547,185.00251002197265C450.3404308310547,181.12621002197267,451.40489383105466,177.31333002197266,453.8648818310547,174.26677002197266C456.3248718310547,171.21983002197265,459.8324618310547,169.37033202197264,463.7423518310547,169.05806982197265C471.2281518310547,168.46947302197265,477.8654518310547,173.80315002197267,478.8709518310547,181.21831002197266L490.12175183105467,264.2009100219727L490.1102518310547,264.26281002197265L480.5362518310547,315.5027100219727Z" fill="#E8E9EA" fill-opacity="1"/></g><g><path d="M388.1255802993774,312.9674971923828L361.55008029937744,311.3644971923828L361.60832299937744,310.9464971923828L379.93408029937746,178.3704971923828C381.86148029937743,171.08913719238282,389.1203802993774,166.61044719238282,396.46508029937746,168.1255151923828C400.30598029937744,168.91782719238282,403.55688029937744,171.1862171923828,405.6198802993774,174.5133171923828C407.6828802993774,177.84039719238282,408.26608029937745,181.7549971923828,407.26138029937744,185.5364971923828L388.1255802993774,312.9674971923828Z" fill="#E8E9EA" fill-opacity="1"/></g><g><ellipse cx="421.6526892185211" cy="202.432963848114" rx="2.3502066135406494" ry="2.34425687789917" fill="#D6D7D8" fill-opacity="1"/></g><g><ellipse cx="421.6526892185211" cy="220.18243741989136" rx="2.3502066135406494" ry="2.34425687789917" fill="#D6D7D8" fill-opacity="1"/></g><g><ellipse cx="421.6526892185211" cy="237.93179655075073" rx="2.3502066135406494" ry="2.34425687789917" fill="#D6D7D8" fill-opacity="1"/></g><g><ellipse cx="421.6526892185211" cy="255.6812014579773" rx="2.3502066135406494" ry="2.34425687789917" fill="#D6D7D8" fill-opacity="1"/></g><g><ellipse cx="421.65269684791565" cy="273.4306757450104" rx="2.3502142429351807" ry="2.3442652225494385" fill="#D6D7D8" fill-opacity="1"/></g><g><ellipse cx="421.6526892185211" cy="291.18011808395386" rx="2.3502066135406494" ry="2.34425687789917" fill="#D6D7D8" fill-opacity="1"/></g><g><ellipse cx="421.6526892185211" cy="308.92946195602417" rx="2.3502066135406494" ry="2.34425687789917" fill="#D6D7D8" fill-opacity="1"/></g><g><ellipse cx="421.6526892185211" cy="326.678927898407" rx="2.3502066135406494" ry="2.34425687789917" fill="#D6D7D8" fill-opacity="1"/></g><g><ellipse cx="425.22051429748535" cy="128.996111869812" rx="21.98272132873535" ry="21.927072525024414" fill="#FDB4B4" fill-opacity="1"/></g><g><path d="M436.7407319885254,103.39899C437.7941319885254,105.53593000000001,436.1235319885254,108.2052,433.9126319885254,109.1037C431.7017319885254,110.0021,429.2042319885254,109.6381,426.8465319885254,109.2641C424.48883198852536,108.8901,421.9877319885254,108.5355,419.7833319885254,109.4498C416.9311319885254,110.6329,415.3233319885254,113.6006,413.9379319885254,116.3545C411.3515319885254,121.4956,408.7652319885254,126.6367,406.1789319885254,131.7779C404.9152319885254,134.2897,403.6230319885254,136.9145,403.59863198852537,139.72480000000002C403.5539319885254,144.8832,407.6564319885254,149.00560000000002,409.8637319885254,153.67079999999999C412.5512319885254,159.3509,412.3296319885254,166.3118,409.2862319885254,171.81040000000002C406.2428319885254,177.3089,400.4553319885254,181.2048,394.2045219885254,181.9626C392.5598819885254,182.162,390.8192419885254,182.1404,389.3405619885254,181.3951C387.8618819885254,180.6498,386.7332889885254,179.0223,387.0071399885254,177.3924C387.5427219885254,174.2047,392.4260319885254,173.4598,393.3228819885254,170.3539C393.7910519885254,168.73250000000002,392.9619119885254,167.001,391.8441119885254,165.7346C390.72631198852537,164.4682,389.3128019885254,163.4804,388.2465919885254,162.1704C385.78808998852537,159.1499,385.6243069885254,154.4872,387.8648119885254,151.3024C389.1815419885254,149.4308,391.2181019885254,148.0402,392.0691119885254,145.9171C392.79446198852537,144.10739999999998,392.5310519885254,142.07319999999999,392.2563119885254,140.1437C391.9033119885254,137.6642,391.5502919885254,135.1848,391.19731198852537,132.7053C390.7854719885254,129.8126,390.37988198852537,126.816,391.1938419885254,124.0093C393.0591119885254,117.57730000000001,400.3401319885254,114.5565,404.6100319885254,109.3901C406.5941319885254,106.9893,407.9288319885254,104.10192,409.9644319885254,101.74433C413.3804319885254,97.78796,418.7584319885254,95.605429,423.9732319885254,96.0591225C429.1880319885254,96.512825,434.1059319885254,99.59111,436.7837319885254,104.07765" fill="#2E2E41" fill-opacity="1"/></g><g><path d="M433.27039542236326,103.80453157424927C432.1964254223633,104.18763657424927,431.7978954223633,105.58292157424927,432.1070454223633,106.67805157424927C432.41617542236327,107.77317157424926,433.2256754223633,108.64330157424926,433.9666454223633,109.50824157424927C442.34694542236326,119.29083157424927,444.2947454223633,134.08793157424927,438.7304454223633,145.69683157424927C437.2503454223633,148.78473157424926,435.2787654223633,151.69083157424927,434.48043542236326,155.01953157424927C433.89956542236325,157.44153157424927,433.9307954223633,160.09833157424927,432.5837154223633,162.19513157424927C431.2122554223633,164.32983157424928,428.4945854223633,165.76023157424927,428.22581132236326,168.28143157424927C428.05333442236326,169.89943157424926,429.0419994223633,171.47103157424925,430.3673054223633,172.41953157424928C431.6926154223633,173.36813157424928,433.3117054223633,173.80213157424927,434.9038454223633,174.15603157424925C439.04214542236326,175.07583157424926,443.27354542236327,175.57803157424928,447.5126454223633,175.65233157424927C448.8946454223633,175.67663157424926,450.3207454223633,175.64673157424926,451.58854542236327,175.09753157424927C452.8563454223633,174.54823157424926,453.93844542236326,173.35693157424927,453.95294542236326,171.97833157424927C453.96424542236326,170.89473157424925,453.3377454223633,169.89523157424927,453.2578454223633,168.81453157424926C453.01834542236327,165.57633157424925,457.3867454223633,163.85373157424925,458.2377454223633,160.71973157424927C458.79734542236326,158.65923157424928,457.6949454223633,156.53903157424926,456.5204454223633,154.75443157424928C455.3461454223633,152.96993157424927,454.0060454223633,151.09603157424925,454.0348454223633,148.96153157424925C454.06254542236326,146.91813157424926,455.3481454223633,145.11863157424926,455.84784542236326,143.13673157424927C456.53894542236327,140.39543157424927,455.6899454223633,137.52803157424927,454.84784542236326,134.82903157424926C454.13184542236326,132.53433157424928,453.4159454223633,130.23973157424928,452.69994542236327,127.94513157424927C451.9389454223633,125.50583157424927,451.1778454223633,123.06663157424927,450.4167454223633,120.62733157424927C449.08814542236325,116.36883157424927,447.6933454223633,111.98703157424927,444.8180454223633,108.57153157424926C441.94274542236326,105.15603157424927,437.1784754223633,102.91742857424927,432.9314054223633,104.31190957424927" fill="#2E2E41" fill-opacity="1"/></g></g><g><g><path d="M448.24991759399416,188.7722431274414L446.74327759399415,188.3342431274414C449.8822475939941,177.5984431274414,443.11383289399413,157.5639591274414,443.04562759399414,157.36291912744142L444.53081759399413,156.8576431274414C444.8181975939941,157.69811312744142,451.52686759399415,177.5663431274414,448.24991759399416,188.7722431274414Z" fill="#3F3C57" fill-opacity="1"/></g><g><ellipse cx="447.4966492652893" cy="194.56419229507446" rx="6.555830478668213" ry="6.539234638214111" fill="#3F3C57" fill-opacity="1"/></g><g><path d="M404.42079844360353,217.71516401367188L400.4448984436035,217.71516401367188C400.0111984436035,217.71516401367188,399.6601984436035,217.36466401367187,399.6601984436035,216.93236401367187C399.6601984436035,216.50006401367187,400.0111984436035,216.14956401367186,400.4448984436035,216.14956401367186L404.42079844360353,216.14956401367186C405.5165984436035,216.14956401367186,406.54579844360353,215.72386401367186,407.3198984436035,214.95026401367187C408.09309844360354,214.17706401367187,408.51839844360353,213.14926401367188,408.51609844360354,212.05696401367186L408.46789844360353,187.6297640136719C408.46789844360353,182.32324401367188,404.1409984436035,178.00737401367186,398.8225984436035,178.00737401367186C393.50407844360353,178.00737401367186,389.1764884436035,182.32324401367188,389.1764884436035,187.62826401367187L389.2247684436035,210.49216401367187C389.2293684436035,212.72276401367188,391.0525184436035,214.55126401367187,393.28872844360353,214.56846401367187L396.0177084436035,214.58906401367187C396.4506984436035,214.59246401367187,396.7993884436035,214.94526401367187,396.7963184436035,215.37796401367189C396.7932584436035,215.80786401367186,396.4422684436035,216.15456401367186,396.0115784436035,216.15456401367186L396.00544844360354,216.15456401367186L393.2764684436035,216.13396401367189C390.1834684436035,216.11026401367187,387.66140944360353,213.58046401367187,387.65527864360354,210.49526401367189L387.6069984436035,187.6297640136719C387.6069984436035,181.46022401367188,392.6380984436035,176.44186401367188,398.8225984436035,176.44186401367188C405.0062984436035,176.44186401367188,410.0372984436035,181.46022401367188,410.0372984436035,187.62826401367187L410.08559844360354,212.05386401367187C410.0886984436035,213.56516401367188,409.5008984436035,214.98656401367188,408.43029844360353,216.05596401367188C407.3604984436035,217.12576401367187,405.9357984436035,217.71516401367188,404.42079844360353,217.71516401367188Z" fill="#3F3C57" fill-opacity="1"/></g><g><ellipse cx="396.01174664497375" cy="215.37184309959412" rx="2.781399965286255" ry="2.7743585109710693" fill="#3F3C57" fill-opacity="1"/></g><g><ellipse cx="400.44467663764954" cy="216.93242812156677" rx="2.781399965286255" ry="2.7743585109710693" fill="#3F3C57" fill-opacity="1"/></g></g></g><g><g><path d="M84.55573951416015,50.063969611816404C86.97153951416016,43.83844961181641,92.18073951416015,40.147919611816405,96.18653951416016,41.81403261181641C100.19223951416015,43.480139611816405,101.48363951416016,49.884819611816404,99.06783951416016,56.11033961181641C98.13673951416015,58.6095396118164,96.61693951416015,60.830939611816405,94.62283951416015,62.58663961181641L84.04633951416015,88.8145396118164L71.68643951416016,83.1801396118164L83.42263951416015,57.91973961181641C83.15903951416016,55.223539611816406,83.54553951416015,52.52733961181641,84.54703951416016,50.055019611816405L84.55573951416015,50.063969611816404Z" fill="#A0616A" fill-opacity="1"/></g><g><path d="M40.23775165405273,217.5081703186035Q22.501761654052736,208.7471703186035,23.731599654052733,202.45917031860353Q24.961441654052734,196.16217031860353,77.80045165405274,62.058170318603516L102.26545165405274,78.45057031860351L40.23775165405273,217.51717031860352L40.23775165405273,217.5081703186035Z" fill="#E6E6E6" fill-opacity="1"/></g><g><path d="M306.25178918457027,543L136.60428918457032,543C111.92848918457031,543,91.85578918457031,522.532,91.85578918457031,497.37L91.85578918457031,45.63C91.85578918457031,20.4681,111.92848918457031,0,136.60428918457032,0L306.25178918457027,0C330.92678918457034,0,350.9997891845703,20.4681,350.9997891845703,45.63L350.9997891845703,497.37C350.9997891845703,522.532,330.92678918457034,543,306.25178918457027,543Z" fill="#D7D7D8" fill-opacity="1"/></g><g><path d="M306.3747668457031,530.6477278060913L136.48126684570312,530.6477278060913C118.21816684570312,530.6477278060913,103.35476684570312,515.4907278060913,103.35476684570312,496.86872780609133L103.35476684570312,45.24482780609131C103.35476684570312,26.621927806091307,118.21826684570313,11.465727806091309,136.48126684570312,11.465727806091309L306.3747668457031,11.465727806091309C324.63776684570314,11.465727806091309,339.5007668457031,26.621927806091307,339.5007668457031,45.24482780609131L339.5007668457031,496.86872780609133C339.5007668457031,515.4907278060913,324.63776684570314,530.6477278060913,306.3747668457031,530.6477278060913Z" fill="#FFFFFF" fill-opacity="1"/></g><g><path d="M245.45365678710937,41.52743699645996L197.41095678710937,41.52743699645996C191.06848678710938,41.52743699645996,185.91195678710938,36.26933699645996,185.91195678710938,29.80193699645996C185.91195678710938,23.33453699645996,191.06848678710938,18.07643699645996,197.41095678710937,18.07643699645996L245.45365678710937,18.07643699645996C251.79605678710936,18.07643699645996,256.95255678710936,23.33453699645996,256.95255678710936,29.80193699645996C256.95255678710936,36.26933699645996,251.79605678710936,41.52743699645996,245.45365678710937,41.52743699645996Z" fill="#D7D7D8" fill-opacity="1"/></g><g><rect x="127.97782897949219" y="180.75515747070312" width="186.9088134765625" height="26.827970504760742" rx="13.413985252380371" fill="#427D9D" fill-opacity="1"/></g><g><rect x="131.86062622070312" y="158.45974731445312" width="57.7232666015625" height="4.6758599281311035" rx="2.3379299640655518" fill="#427D9D" fill-opacity="1"/></g><g><rect x="127.97782897949219" y="271.576171875" width="186.9088134765625" height="26.827970504760742" rx="13.413985252380371" fill="#D7D7D8" fill-opacity="1"/></g><g><rect x="131.86062622070312" y="249.27174377441406" width="57.7232666015625" height="4.6758599281311035" rx="2.3379299640655518" fill="#D7D7D8" fill-opacity="1"/></g><g><rect x="127.97782897949219" y="362.38818359375" width="186.9088134765625" height="26.827970504760742" rx="13.413985252380371" fill="#D7D7D8" fill-opacity="1"/></g><g><rect x="131.86062622070312" y="340.09271240234375" width="57.7232666015625" height="4.6758599281311035" rx="2.3379299640655518" fill="#D7D7D8" fill-opacity="1"/></g><g><path d="M24.56611442565918,156.51585517578124L47.06331442565918,164.05815517578125L47.06331442565918,131.03155517578125L26.64805442565918,131.03155517578125L24.56611442565918,156.51585517578124Z" fill="#A0616A" fill-opacity="1"/></g><g><ellipse cx="44.27867889404297" cy="117.30856895446777" rx="22.418170928955078" ry="22.85976219177246" fill="#A0616A" fill-opacity="1"/></g><g><path d="M38.568743598937985,119.1001192993164L41.66084359893799,122.9250192993164L47.24784359893799,112.94621929931641Q54.380843598937986,113.32241929931641,54.380843598937986,107.92101929931641Q54.380843598937986,102.5196192993164,60.925343598937985,102.3673192993164Q70.19304359893799,85.8674552993164,50.99884359893799,90.21187929931641Q37.68144359893799,80.9139092993164,31.066643598937986,88.8592892993164Q10.765593598937988,99.2859192993164,16.57218359893799,117.4340192993164L26.22644359893799,136.1464192993164L28.413743598937987,131.9094192993164Q27.087243598937988,114.1286192993164,38.56864359893799,119.0822192993164L38.568743598937985,119.1001192993164Z" fill="#2F2E41" fill-opacity="1"/></g><g><path d="M59.70438952789306,269.84734123046877L11.450829527893067,267.33026123046875Q4.054239527893066,295.92286123046875,13.400999527893067,325.71576123046873L14.525419527893067,505.1272612304688L41.79268952789307,505.1272612304688L67.49628952789307,320.0545612304687L59.70438952789306,269.84734123046877Z" fill="#2F2E41" fill-opacity="1"/></g><g><path d="M51.561,150.17391213378906L25.0756,135.84181213378906Q-3.46536,178.37241213378906,0.478897,201.41131213378907Q4.43194,224.45021213378908,11.442,267.3388121337891L69.8681,269.8558121337891L59.6692,185.39521213378907L51.561,150.17391213378906Z" fill="#E6E6E6" fill-opacity="1"/></g><g><path d="M69.86806327209473,269.84734123046877L11.442003272094727,267.33026123046875Q4.045413272094726,295.92286123046875,13.392173272094727,325.71576123046873L24.689063272094728,505.1272612304688L51.95636327209473,505.1272612304688L77.65996327209473,320.0545612304687L69.86806327209473,269.84734123046877Z" fill="#2F2E41" fill-opacity="1"/></g><g><path d="M92.31258482666016,316.69549794921875C94.46478482666015,323.01949794921876,92.87478482666016,329.28089794921874,88.77238482666016,330.6871979492187C84.66998482666015,332.08459794921873,79.60138482666015,328.09849794921877,77.44912482666015,321.76549794921874C76.55309482666016,319.24839794921877,76.28955482666015,316.55219794921874,76.67608482666016,313.90069794921874L67.91788482666016,286.9831979492188L80.88388482666015,283.03289794921875L88.14868482666016,309.98629794921874C90.07248482666016,311.8583979492187,91.50438482666016,314.1604979492188,92.32138482666016,316.69549794921875L92.31258482666016,316.69549794921875Z" fill="#A0616A" fill-opacity="1"/></g><g><path d="M18.803483963012695,160.29601749023436Q37.848383963012694,155.13645749023436,40.9492839630127,160.7259874902344Q44.041483963012695,166.31551749023438,89.7650839630127,303.11542749023437L60.74088396301269,306.9674274902344L18.812270383012695,160.29601749023436L18.803483963012695,160.29601749023436Z" fill="#E6E6E6" fill-opacity="1"/></g><g transform="matrix(-1,-1.2246468525851679e-16,1.2246468525851679e-16,-1,72.41137695312494,1051.800048828125)"><rect x="36.2056884765625" y="525.9000244140625" width="18.394845962524414" height="26.612991333007812" rx="0" fill="#A0616A" fill-opacity="1"/></g><g><path d="M34.1764232925415,541.145815234375C31.031623292541504,541.432415234375,15.289663292541505,542.704415234375,14.499054292541503,539.022815234375C13.778721292541505,535.645815234375,14.841650292541503,532.116515234375,14.990986292541503,531.632815234375C16.501933292541505,516.279495234375,17.064143292541505,516.109295234375,17.406733292541503,516.010775234375C17.942593292541503,515.849545234375,19.506243292541505,516.610925234375,22.044973292541503,518.277075234375L22.203103292541503,518.384565234375L22.238243292541505,518.572695234375C22.282163292541505,518.814565234375,23.406583292541505,524.448915234375,28.738823292541504,523.580015234375C32.39322329254151,522.988815234375,33.5791232925415,522.164715234375,33.9568232925415,521.761615234375C33.6494232925415,521.618295234375,33.262823292541505,521.367455234375,32.9905232925415,520.937505234375C32.595223292541505,520.310465234375,32.5249232925415,519.504315234375,32.788523292541505,518.536885234375C33.47372329254151,515.983985234375,35.5292232925415,512.212825234375,35.61712329254151,512.060562234375L35.85432329254151,511.630615234375L56.761523292541504,526.016515234375L69.6748232925415,529.778715234375C70.6499232925415,530.065315234375,71.4317232925415,530.773015234375,71.8270232925415,531.722515234375C72.3716232925415,533.048215234375,72.0378232925415,534.588915234375,70.9837232925415,535.556315234375C68.63822329254151,537.706215234375,63.982423292541505,541.387715234375,59.089423292541504,541.8446152343749C57.7893232925415,541.970015234375,56.0675232925415,542.014815234375,54.1349232925415,542.014815234375C46.06192329254151,542.014815234375,34.2730232925415,541.163815234375,34.18522329254151,541.145915234375L34.1764232925415,541.145815234375Z" fill="#2F2E41" fill-opacity="1"/></g><g transform="matrix(-1,-1.2246468525851679e-16,1.2246468525851679e-16,-1,98.58934020996088,1051.800048828125)"><rect x="49.29467010498047" y="525.9000244140625" width="18.394845962524414" height="26.612991333007812" rx="0" fill="#A0616A" fill-opacity="1"/></g><g><path d="M47.265411596679684,541.145815234375C44.12061159667969,541.432415234375,28.37865159667969,542.704415234375,27.58804259667969,539.022815234375C26.86770959667969,535.645815234375,27.93063859667969,532.116515234375,28.079974596679687,531.632815234375C29.59092159667969,516.279495234375,30.15313159667969,516.109295234375,30.495721596679687,516.010775234375C31.031581596679686,515.849545234375,32.59523159667969,516.610925234375,35.13396159667969,518.277075234375L35.29209159667969,518.384565234375L35.32723159667969,518.572695234375C35.37115159667969,518.814565234375,36.49557159667969,524.448915234375,41.82781159667969,523.580015234375C45.48221159667969,522.988815234375,46.66811159667969,522.164715234375,47.045811596679684,521.761615234375C46.73841159667968,521.618295234375,46.35181159667969,521.367455234375,46.07951159667969,520.937505234375C45.68421159667969,520.310465234375,45.613911596679685,519.504315234375,45.87751159667969,518.536885234375C46.56271159667969,515.983985234375,48.618211596679686,512.212825234375,48.70611159667969,512.060562234375L48.94331159667969,511.630615234375L69.8505115966797,526.016515234375L82.76381159667969,529.778715234375C83.73891159667969,530.065315234375,84.52071159667969,530.773015234375,84.91601159667968,531.722515234375C85.46061159667968,533.048215234375,85.12681159667969,534.588915234375,84.07271159667968,535.556315234375C81.7272115966797,537.706215234375,77.0714115966797,541.387715234375,72.1784115966797,541.8446152343749C70.87831159667968,541.970015234375,69.15651159667968,542.014815234375,67.22391159667968,542.014815234375C59.15091159667969,542.014815234375,47.362011596679686,541.163815234375,47.27421159667969,541.145915234375L47.265411596679684,541.145815234375Z" fill="#2F2E41" fill-opacity="1"/></g></g></g></svg>