<svg xmlns="http://www.w3.org/2000/svg" xmlns:xlink="http://www.w3.org/1999/xlink" fill="none" version="1.1" width="521" height="337" viewBox="0 0 521 337"><defs><clipPath id="master_svg0_749_2660"><rect x="0" y="0" width="521" height="337" rx="0"/></clipPath></defs><g clip-path="url(#master_svg0_749_2660)"><g><path d="M363.631498046875,227.27405712890624C310.033498046875,227.27605712890625,263.399728046875,187.28425712890623,256.510498046875,132.73715712890626L257.827238046875,132.57055712890624C264.631258046875,186.44425712890626,310.697098046875,225.94305712890625,363.632498046875,225.94605712890626C368.129498046875,225.94605712890626,372.623498046875,225.66305712890625,377.084498046875,225.09705712890624C435.46849804687497,217.72005712890626,476.96549804687504,164.20945712890625,469.59049804687504,105.81265212890625L470.907498046875,105.64605712890625C478.37449804687503,164.76875712890626,436.360498046875,218.94605712890626,377.251498046875,226.41405712890625C372.722498046875,226.98705712890626,368.173498046875,227.27405712890624,363.631498046875,227.27405712890624Z" fill="#3F3D56" fill-opacity="1"/></g><g><path d="M406.3715136328125,53.520159716796876C399.0993536328125,34.291359716796876,408.7885636328125,12.806629716796875,428.0130236328125,5.532809716796875C447.2374236328125,-1.7410202832031247,468.7171236328125,7.950429716796875,475.98922363281247,27.179259716796874L474.7477236328125,27.649159716796873C467.7350236328125,9.106209716796876,447.0215236328125,-0.23963028320312496,428.4827236328125,6.774679716796875C409.9440336328125,13.788959716796874,400.6003636328125,34.507259716796874,407.6130836328125,53.05025971679687L406.3715136328125,53.520159716796876Z" fill="#3F3D56" fill-opacity="1"/></g><g><path d="M514.1808892578125,118.49125720214843L446.7206592578125,118.49125720214843C442.9562892578125,118.48725720214844,439.9057417678125,115.43595720214844,439.9014892578125,111.67065720214843L439.9014892578125,22.325037202148437C439.9057012678125,18.559797202148438,442.9562892578125,15.508510692148437,446.7206592578125,15.504257202148438L514.1808892578125,15.504257202148438C517.9452892578125,15.508520822148437,520.9958892578125,18.559797202148438,521.0000892578125,22.325037202148437L521.0000892578125,111.67065720214843C520.9958892578125,115.43595720214844,517.9452892578125,118.48725720214844,514.1808892578125,118.49125720214843Z" fill="#E6E6E6" fill-opacity="1"/></g><g><path d="M487.377827734375,113.13843876953125L451.462637734375,113.13843876953125C447.937097734375,113.13453876953125,445.080018244375,110.27693876953126,445.075927734375,106.75053876953125L445.075927734375,27.24509876953125C445.080018244375,23.71874876953125,447.937097734375,20.86113780953125,451.462637734375,20.85723876953125L509.43902773437503,20.85723876953125C512.964527734375,20.86110741953125,515.821527734375,23.71878876953125,515.825427734375,27.24509876953125L515.825427734375,84.68463876953125C515.807627734375,100.39193876953125,503.081527734375,113.12083876953125,487.377827734375,113.13843876953125Z" fill="#FFFFFF" fill-opacity="1"/></g><g><path d="M503.6554439453125,60.727897983398435L457.2461139453125,60.727897983398435C456.4101919453125,60.727897983398435,455.7325439453125,60.050087983398434,455.7325439453125,59.213977983398436C455.7325439453125,58.37786198339844,456.4101919453125,57.70005798339844,457.2461139453125,57.70005798339844L503.6554439453125,57.70005798339844C504.4913439453125,57.70005798339844,505.1689439453125,58.37786198339844,505.1689439453125,59.213977983398436C505.1689439453125,60.050087983398434,504.4913439453125,60.727897983398435,503.6554439453125,60.727897983398435Z" fill="#E4E4E4" fill-opacity="1"/></g><g><path d="M503.65552539062503,66.71008890625001L457.246225390625,66.71008890625001C456.412609390625,66.70684890625,455.738525390625,66.02997890625,455.738525390625,65.19612890625C455.738525390625,64.36228290625,456.412609390625,63.68538991625,457.246225390625,63.68212890625L503.65552539062503,63.68212890625C504.491425390625,63.68212890625,505.169125390625,64.35995390625,505.169125390625,65.19610890625C505.169125390625,66.03226890625,504.491425390625,66.71008890625001,503.65552539062503,66.71008890625001Z" fill="#E4E4E4" fill-opacity="1"/></g><g><path d="M477.3634439453125,72.69231715820312L457.24615394531247,72.69231715820312C456.4101919453125,72.69231715820312,455.7325439453125,72.01449715820313,455.7325439453125,71.17833715820312C455.7325439453125,70.34218215820313,456.4101919453125,69.66433715820312,457.24615394531247,69.66433715820312L477.3634439453125,69.66433715820312C478.1971439453125,69.66759816820313,478.8711439453125,70.34447115820312,478.8711439453125,71.17829715820312C478.8711439453125,72.01214715820312,478.1971439453125,72.68903715820312,477.3634439453125,72.69231715820312Z" fill="#E4E4E4" fill-opacity="1"/></g><g><path d="M503.6554439453125,36.29825625976562L457.2461139453125,36.29825625976562C456.4101919453125,36.29825625976562,455.7325439453125,35.62044625976562,455.7325439453125,34.784336259765624C455.7325439453125,33.94822025976563,456.4101919453125,33.270416259765625,457.2461139453125,33.270416259765625L503.6554439453125,33.270416259765625C504.4913439453125,33.270416259765625,505.1689439453125,33.94822025976563,505.1689439453125,34.784336259765624C505.1689439453125,35.62044625976562,504.4913439453125,36.29825625976562,503.6554439453125,36.29825625976562Z" fill="#E4E4E4" fill-opacity="1"/></g><g><path d="M503.6554439453125,42.28043666503906L457.24615394531247,42.28043666503906C456.4101919453125,42.28043666503906,455.7325439453125,41.602616665039065,455.7325439453125,40.766456665039065C455.7325439453125,39.93030166503906,456.4102319453125,39.252466792439066,457.24615394531247,39.25247691973906L503.6554439453125,39.25247691973906C504.4914439453125,39.252466792439066,505.1691439453125,39.93030166503906,505.1691439453125,40.766456665039065C505.1691439453125,41.602616665039065,504.4914439453125,42.28043666503906,503.6554439453125,42.28043666503906Z" fill="#E4E4E4" fill-opacity="1"/></g><g><path d="M477.363525390625,48.26265543457031L457.246225390625,48.26265543457031C456.412609390625,48.259395434570315,455.738525390625,47.582525434570314,455.738525390625,46.748675434570316C455.738525390625,45.914829434570315,456.412609390625,45.237956444570315,457.246225390625,45.23469543457031L477.363525390625,45.23469543457031C478.197225390625,45.237956444570315,478.871325390625,45.914829434570315,478.871325390625,46.748675434570316C478.871325390625,47.582525434570314,478.197225390625,48.259395434570315,477.363525390625,48.26265543457031Z" fill="#E4E4E4" fill-opacity="1"/></g><g><path d="M503.6554439453125,86.01252017578125L457.2461139453125,86.01252017578125C456.4101919453125,86.01250017578126,455.7325439453125,85.33469017578125,455.7325439453125,84.49858017578126C455.7325439453125,83.66246417578125,456.4101919453125,82.98465992108125,457.2461139453125,82.98468017578125L503.6554439453125,82.98468017578125C504.4913439453125,82.98465992108125,505.1689439453125,83.66246417578125,505.1689439453125,84.49858017578126C505.1689439453125,85.33469017578125,504.4913439453125,86.01250017578126,503.6554439453125,86.01252017578125Z" fill="#427D9D" fill-opacity="1"/></g><g><path d="M464.5057639453125,91.99470532226563L457.24615394531247,91.99470532226563C456.4101919453125,91.99470532226563,455.7325439453125,91.31686532226563,455.7325439453125,90.48070532226562C455.7325439453125,89.64455032226563,456.4101919453125,88.96672557696563,457.24615394531247,88.96672557696563L464.5057639453125,88.96672557696563C465.3440339453125,88.96344431226562,466.0253439453125,89.64224132226562,466.0253439453125,90.48068532226563C466.0253439453125,91.31917532226562,465.3440339453125,91.99796532226563,464.5057639453125,91.99470532226563Z" fill="#427D9D" fill-opacity="1"/></g><g><path d="M477.363525390625,97.97693460937501L457.246225390625,97.97693460937501C456.412609390625,97.973674609375,455.738525390625,97.296784609375,455.738525390625,96.462934609375C455.738525390625,95.629087609375,456.412609390625,94.952215369375,457.246225390625,94.948974609375L477.363525390625,94.948974609375C478.197225390625,94.952235619375,478.871225390625,95.629108609375,478.871225390625,96.462934609375C478.871225390625,97.296784609375,478.197225390625,97.973674609375,477.363525390625,97.97693460937501Z" fill="#427D9D" fill-opacity="1"/></g><g><path d="M257.5165471875,115.496401953125C245.3244371875,83.258201953125,261.5689571875,47.238101953124996,293.7996671875,35.043151953125C326.0303671875,22.848211953125002,362.0418671875,39.096461953125,374.2338671875,71.334601953125L372.9928671875,71.804501953125C361.0598671875,40.252231953125,325.8144671875,24.349611953125,294.2694671875,36.285021953124996C262.7244171875,48.220401953125,246.8254571875,83.474201953125,258.7581271875,115.026401953125L257.5165471875,115.496401953125Z" fill="#3F3D56" fill-opacity="1"/></g><g><ellipse cx="373.5189914703369" cy="7.394231796264648" rx="6.334299087524414" ry="6.335760116577148" fill="#E6E6E6" fill-opacity="1"/></g><g><ellipse cx="219.5745334625244" cy="39.252187728881836" rx="6.334299087524414" ry="6.335760116577148" fill="#E6E6E6" fill-opacity="1"/></g><g><path d="M307.026107421875,299.58941650390625L162.018107421875,299.58941650390625C153.926517421875,299.58041650390624,147.369260451875,293.02141650390627,147.360107421875,284.9274165039062L147.360107421875,92.87591650390625C147.369219951875,84.78241650390625,153.926517421875,78.22359189390625,162.018107421875,78.21441650390625L307.026107421875,78.21441650390625C315.11810742187504,78.22357164390625,321.675107421875,84.78239650390626,321.685107421875,92.87591650390625L321.685107421875,284.9274165039062C321.675107421875,293.02141650390627,315.11810742187504,299.58041650390624,307.026107421875,299.58941650390625Z" fill="#E6E6E6" fill-opacity="1"/></g><g><path d="M251.68100195312502,287.7021728515625L172.211101953125,287.7021728515625C164.843351953125,287.6931728515625,158.872804473125,281.7211728515625,158.864501953125,274.3521728515625L158.864501953125,103.4517728515625C158.872824723125,96.0824628515625,164.843411953125,90.1104975415625,172.211101953125,90.1021728515625L296.833501953125,90.1021728515625C304.201501953125,90.1104975415625,310.171501953125,96.0824628515625,310.18050195312503,103.4517728515625L310.18050195312503,229.1891728515625C310.143501953125,261.49017285156253,283.974501953125,287.6651728515625,251.68100195312502,287.7021728515625Z" fill="#FFFFFF" fill-opacity="1"/></g><g><path d="M284.4016484375,122.91182186523437L184.6431084375,122.91182186523437C182.8462784375,122.91182186523437,181.3896484375,121.45486186523438,181.3896484375,119.65762186523438C181.3896484375,117.86037186523437,182.8462784375,116.40341186523438,184.6431084375,116.40341186523438L284.4016484375,116.40341186523438C286.19864843749997,116.40341186523438,287.6546484375,117.86037186523437,287.6546484375,119.65762186523438C287.6546484375,121.45486186523438,286.19864843749997,122.91182186523437,284.4016484375,122.91182186523437Z" fill="#427D9D" fill-opacity="1"/></g><g><path d="M284.401404296875,135.7708249609375L184.643024296875,135.7708249609375C182.846094296875,135.7708249609375,181.389404296875,134.3137949609375,181.389404296875,132.5164749609375C181.389404296875,130.7191249609375,182.846094296875,129.2621052156375,184.643024296875,129.2620849609375L284.401404296875,129.2620849609375C286.19840429687497,129.2621052156375,287.655404296875,130.7191249609375,287.655404296875,132.5164749609375C287.655404296875,134.3137949609375,286.19840429687497,135.7708249609375,284.401404296875,135.7708249609375Z" fill="#427D9D" fill-opacity="1"/></g><g><path d="M227.886004296875,148.62983375L184.643024296875,148.62983375C182.846094296875,148.62983375,181.389404296875,147.17280375,181.389404296875,145.37546375C181.389404296875,143.57811375,182.846094296875,142.12109375,184.643024296875,142.12109375L227.886004296875,142.12109375C229.682904296875,142.12109375,231.139604296875,143.57811375,231.139604296875,145.37546375C231.139604296875,147.17280375,229.682904296875,148.62983375,227.886004296875,148.62983375Z" fill="#427D9D" fill-opacity="1"/></g><g><path d="M284.401615234375,175.56137799804688L184.643065234375,175.56137799804688C182.842705234375,175.56633799804686,181.380615234375,174.10791799804687,181.380615234375,172.30715799804688C181.380615234375,170.50638799804688,182.842735234375,169.04798558804688,184.643065234375,169.05296825274687L284.401615234375,169.05296825274687C286.201615234375,169.04798558804688,287.663615234375,170.50640799804688,287.663615234375,172.30715799804688C287.663615234375,174.10791799804687,286.201615234375,175.56633799804686,284.401615234375,175.56137799804688Z" fill="#E4E4E4" fill-opacity="1"/></g><g><path d="M284.401404296875,188.42036109375L184.643024296875,188.42036109375C182.846094296875,188.42036109375,181.389404296875,186.96333109375,181.389404296875,185.16601109375C181.389404296875,183.36866109375,182.846094296875,181.91164134845,184.643024296875,181.91162109375L284.401404296875,181.91162109375C286.19840429687497,181.91164134845,287.655404296875,183.36866109375,287.655404296875,185.16601109375C287.655404296875,186.96333109375,286.19840429687497,188.42036109375,284.401404296875,188.42036109375Z" fill="#E4E4E4" fill-opacity="1"/></g><g><path d="M227.886004296875,201.2793698828125L184.643024296875,201.2793698828125C182.846094296875,201.2793698828125,181.389404296875,199.8223398828125,181.389404296875,198.0249998828125C181.389404296875,196.2276498828125,182.846094296875,194.7706298828125,184.643024296875,194.7706298828125L227.886004296875,194.7706298828125C229.682904296875,194.7706298828125,231.139604296875,196.2276498828125,231.139604296875,198.0249998828125C231.139604296875,199.8223398828125,229.682904296875,201.2793698828125,227.886004296875,201.2793698828125Z" fill="#E4E4E4" fill-opacity="1"/></g><g><path d="M284.401615234375,228.21083309570312L184.643065234375,228.21083309570312C182.842705234375,228.2158130957031,181.380615234375,226.75739309570312,181.380615234375,224.95663309570313C181.380615234375,223.15586309570313,182.842735234375,221.69744043570313,184.643065234375,221.70242309570312L284.401615234375,221.70242309570312C286.201615234375,221.69744043570313,287.663615234375,223.15586309570313,287.663615234375,224.95663309570313C287.663615234375,226.75739309570312,286.201615234375,228.2158130957031,284.401615234375,228.21083309570312Z" fill="#E4E4E4" fill-opacity="1"/></g><g><path d="M284.401404296875,241.06983619140624L184.643024296875,241.06983619140624C182.846094296875,241.06983619140624,181.389404296875,239.61278619140626,181.389404296875,237.81546619140624C181.389404296875,236.01813619140626,182.846094296875,234.56109619140625,184.643024296875,234.56109619140625L284.401404296875,234.56109619140625C286.19840429687497,234.56109619140625,287.655404296875,236.01813619140626,287.655404296875,237.81546619140624C287.655404296875,239.61278619140626,286.19840429687497,241.06983619140624,284.401404296875,241.06983619140624Z" fill="#E4E4E4" fill-opacity="1"/></g><g><path d="M227.8860375,253.92884498046874L184.6430675,253.92884498046874C182.8496575,253.92389498046876,181.3984375,252.46831498046876,181.3984375,250.67447498046874C181.3984375,248.88063498046876,182.8496575,247.42504713046876,184.6430675,247.42010498046875L227.8860375,247.42010498046875C229.6794375,247.42508764046875,231.1306375,248.88063498046876,231.1306375,250.67447498046874C231.1306375,252.46831498046876,229.6794375,253.92389498046876,227.8860375,253.92884498046874Z" fill="#E4E4E4" fill-opacity="1"/></g><g><path d="M418.752787109375,156.98648718261717L345.317477109375,156.98648718261717C341.219667109375,156.98148718261717,337.898904119375,153.6604871826172,337.894287109375,149.56148718261718L337.894287109375,52.30238718261719C337.898904119375,48.203657182617185,341.219667109375,44.882125512617186,345.317477109375,44.87748718261719L418.752787109375,44.87748718261719C422.850587109375,44.88210526261719,426.171387109375,48.203637182617186,426.175987109375,52.30238718261719L426.175987109375,149.56148718261718C426.171387109375,153.6604871826172,422.850587109375,156.98148718261717,418.752787109375,156.98648718261717Z" fill="#E6E6E6" fill-opacity="1"/></g><g><path d="M391.5299626953125,151.12976464843752L350.4793626953125,151.12976464843752C346.6579326953125,151.1257646484375,343.5611367053125,148.0279646484375,343.5567626953125,144.2055646484375L343.5567626953125,57.6582846484375C343.5609747053125,53.8358346484375,346.6578126953125,50.7381396684375,350.4793626953125,50.7337646484375L413.59086269531247,50.7337646484375C417.4125626953125,50.7380181384375,420.5095626953125,53.8357346484375,420.5137626953125,57.6582846484375L420.5137626953125,122.1396646484375C420.4955626953125,138.1430646484375,407.5296626953125,151.1117646484375,391.5299626953125,151.12976464843752Z" fill="#FFFFFF" fill-opacity="1"/></g><g><path d="M407.295185546875,67.51319412109375L356.775275546875,67.51319412109375C355.865354546875,67.51319412109375,355.127685546875,66.77537412109375,355.127685546875,65.86521412109374C355.127685546875,64.95504312109375,355.865354546875,64.21722412109375,356.775275546875,64.21722412109375L407.295185546875,64.21722412109375C408.205085546875,64.21722412109375,408.94278554687503,64.95504312109375,408.94278554687503,65.86521412109374C408.94278554687503,66.77537412109375,408.205085546875,67.51319412109375,407.295185546875,67.51319412109375Z" fill="#E4E4E4" fill-opacity="1"/></g><g><path d="M407.2948359375,74.02533701171875L356.7749659375,74.02533701171875C355.8667509375,74.02282701171875,355.1318359375,73.28569701171875,355.1318359375,72.37727701171875C355.1318359375,71.46884901171875,355.8667509375,70.73171885171875,356.7749659375,70.72918701171875L407.2948359375,70.72918701171875C408.2030359375,70.73169860171875,408.9379359375,71.46884901171875,408.9379359375,72.37727701171875C408.9379359375,73.28567701171875,408.2030359375,74.02280701171875,407.2948359375,74.02533701171875Z" fill="#E4E4E4" fill-opacity="1"/></g><g><path d="M378.6741359375,80.5373609375L356.7749659375,80.5373609375C355.8667509375,80.5348309375,355.1318359375,79.7977009375,355.1318359375,78.8892809375C355.1318359375,77.9808529375,355.8667509375,77.2437225275,356.7749659375,77.2412109375L378.6741359375,77.2412109375C379.5823359375,77.2437225275,380.3172359375,77.9808529375,380.3172359375,78.8892809375C380.3172359375,79.7977009375,379.5823359375,80.5348309375,378.6741359375,80.5373609375Z" fill="#E4E4E4" fill-opacity="1"/></g><g><path d="M407.295185546875,94.17603591796875L356.775275546875,94.17603591796875C355.865354546875,94.17603591796875,355.127685546875,93.43821591796875,355.127685546875,92.52805591796874C355.127685546875,91.61788491796875,355.865354546875,90.88006591796875,356.775275546875,90.88006591796875L407.295185546875,90.88006591796875C408.205085546875,90.88006591796875,408.94278554687503,91.61788491796875,408.94278554687503,92.52805591796874C408.94278554687503,93.43821591796875,408.205085546875,94.17603591796875,407.295185546875,94.17603591796875Z" fill="#427D9D" fill-opacity="1"/></g><g><path d="M394.02394140625,100.68808725585937L356.77515140625,100.68808725585937C355.86515140625,100.68808725585937,355.12744140625,99.95022725585937,355.12744140625,99.04002725585937C355.12744140625,98.12981725585938,355.86515140625,97.39193725585938,356.77515140625,97.39193725585938L394.02394140625,97.39193725585938C394.93394140625,97.39193725585938,395.67164140625,98.12981725585938,395.67164140625,99.04002725585937C395.67164140625,99.95022725585937,394.93394140625,100.68808725585937,394.02394140625,100.68808725585937Z" fill="#427D9D" fill-opacity="1"/></g><g><path d="M378.6742890625,107.20014169921875L356.7750590625,107.20014169921875C355.8675700625,107.19660169921875,355.1337890625,106.45975169921876,355.1337890625,105.55206169921875C355.1337890625,104.64434269921875,355.8675700625,103.90751601921875,356.7750590625,103.90399169921875L378.6742890625,103.90399169921875C379.5816890625,103.90753627921875,380.3154890625,104.64436269921875,380.3154890625,105.55206169921875C380.3154890625,106.45975169921876,379.5816890625,107.19660169921875,378.6742890625,107.20014169921875Z" fill="#427D9D" fill-opacity="1"/></g><g><path d="M407.295185546875,120.83887771484375L356.775275546875,120.83887771484375C355.865354546875,120.83887771484375,355.127685546875,120.10105771484375,355.127685546875,119.19089771484374C355.127685546875,118.28072671484375,355.865354546875,117.54290771484375,356.775275546875,117.54290771484375L407.295185546875,117.54290771484375C408.205085546875,117.54290771484375,408.94278554687503,118.28072671484375,408.94278554687503,119.19089771484374C408.94278554687503,120.10105771484375,408.205085546875,120.83887771484375,407.295185546875,120.83887771484375Z" fill="#E4E4E4" fill-opacity="1"/></g><g><path d="M407.29504140625,127.3509595703125L356.77515140625,127.3509595703125C355.86515140625,127.3509595703125,355.12744140625,126.6130995703125,355.12744140625,125.7028995703125C355.12744140625,124.7926895703125,355.86515140625,124.0548095703125,356.77515140625,124.0548095703125L407.29504140625,124.0548095703125C408.20504140625,124.0548095703125,408.94274140625,124.7926895703125,408.94274140625,125.7028995703125C408.94274140625,126.6130995703125,408.20504140625,127.3509595703125,407.29504140625,127.3509595703125Z" fill="#E4E4E4" fill-opacity="1"/></g><g><path d="M85.86082765625,190.4011341796875C88.25539765625,187.7950341796875,87.71289765625,183.6574341796875,84.72730765625,181.7572341796875L89.38569765625,162.0975341796875L79.52629765625,165.7004241796875L76.61416065625,183.8172341796875C75.22456165625,186.3583341796875,75.95473805625,189.5374341796875,78.31378765625,191.2172341796875C80.67281765625,192.8969341796875,83.91509765625,192.5463341796875,85.86082765625,190.4011341796875Z" fill="#FFB8B8" fill-opacity="1"/></g><g><path d="M109.5705228515625,108.01686669921875L105.6136228515625,118.19396669921875Q107.3094228515625,128.37106669921874,104.4831228515625,130.63266669921876C101.6568228515625,132.89426669921875,102.7873228515625,132.89426669921875,102.7873228515625,134.59046669921875C102.5904228515625,137.05106669921875,101.3574228515625,139.31206669921875,99.3957228515625,140.80976669921876Q97.1346228515625,142.50596669921873,86.9599228515625,176.99486669921873L76.7851446515625,176.99486669921873C77.1138438515625,174.36686669921875,77.1138438515625,171.70786669921876,76.7851446515625,169.07946669921876C76.2198848515625,165.12176669921877,78.4809428515625,154.94466669921874,79.6114628515625,153.24846669921874C80.7419828515625,151.55226669921876,79.6114628515625,149.29066669921875,79.6114628515625,145.89826669921877C79.6114628515625,142.50596669921873,81.8725228515625,140.80976669921876,81.8725228515625,135.15586669921873C81.8725228515625,129.50186669921874,88.6557228515625,85.40116669921875,88.0904228515625,80.31256669921875Q87.5251228515625,75.22400669921875,93.7430228515625,70.70086669921875L99.3957228515625,70.70086669921875L109.5705228515625,108.01686669921875Z" fill="#427D9D" fill-opacity="1"/></g><g><path d="M133.511058203125,129.60272684570313L142.915658203125,171.5821668457031L82.649658203125,167.83226684570312L99.037458203125,126.60476684570312L133.511058203125,129.60272684570313Z" fill="#FFB8B8" fill-opacity="1"/></g><g><path d="M2.1464,287.38129521484376C3.94042,293.86889521484375,6.74154,300.03459521484376,10.4475,305.65309521484374C18.7286,318.17729521484375,30.5797,327.75459521484373,43.6053,335.4203952148438C44.5077,335.9579952148438,45.4234,336.48229521484376,46.3391,336.99999521484375L55.4762,336.99999521484375L55.7947,336.26989521484376L55.7947,336.26329521484377L56.1663,335.4203952148438L56.2128,335.32079521484377L56.2327,335.4203952148438L56.5976,336.99999521484375L61.0832,336.99999521484375C61.4547,336.47569521484377,61.8197,335.9513952148437,62.178,335.4203952148438C62.7023,334.6438952148437,63.2065,333.86069521484376,63.6843,333.0641952148437C64.5276,331.6712952148438,65.2812,330.2258952148437,65.9403,328.73689521484374C66.02,328.57089521484374,66.0864,328.4049952148438,66.1527,328.23909521484376L65.8541,327.91389521484376L67.0949,322.4846952148438L64.6,322.07329521484377L67.3338,313.63749521484374C67.2343,313.32559521484376,67.1214,313.01359521484375,67.002,312.70169521484377C65.4692,308.81899521484377,62.5894,305.9185952148438,59.1721,303.48279521484375C55.6553,300.96739521484375,51.5611,298.94969521484376,47.7989,296.85239521484374C46.0337,295.86349521484374,44.2953,294.82139521484373,42.6032,293.71969521484374L42.6032,293.71309521484375Q39.3584,291.61239521484373,36.3061,289.21979521484377C36.2713,289.1975952148438,36.2381,289.17319521484376,36.2065,289.14679521484373C36.1784,289.12659521484375,36.1518,289.10439521484375,36.1269,289.08039521484375C27.0042,281.95169521484377,19.2845,273.19049521484374,13.3603,263.24229521484375C13.3603,263.24229521484375,13.3537,263.2355952148437,13.3537,263.2355952148437C13.1547,262.91709521484376,12.9689,262.59849521484375,12.7831,262.27329521484376L12.7831,262.26669521484376C10.3571,258.09304521484376,8.26906,253.73184521484376,6.53909,249.22479521484374L6.53909,249.21815621484376C6.40633,248.88630221484374,6.28693,248.55444921484374,6.16086,248.22259521484375Q5.90207,248.66062421484375,5.66319,249.09869321484376C5.66319,249.09869321484376,5.65656,249.10533721484376,5.65656,249.10533721484376C-0.77989,260.6205952148438,-1.3904,274.49209521484374,2.1464,287.38129521484376Z" fill="#F0F0F0" fill-opacity="1"/></g><g><path d="M5.6566564396875,249.10529087890626C5.5922004796875004,255.25081087890624,6.2311306796875,261.38355087890625,7.5609716796874995,267.38375087890626C8.1585916796875,270.12955087890623,8.9028616796875,272.84135087890627,9.790581679687499,275.5075508789063C11.5138416796875,280.72365087890626,13.7661516796875,285.74975087890624,16.5123216796875,290.50725087890623C16.664921679687502,290.7661508789063,16.8109216796875,291.01835087890623,16.970221679687498,291.27055087890625L16.970221679687498,291.2772508789063C18.1438216796875,293.25655087890624,19.4173216796875,295.17495087890626,20.7856216796875,297.0249508789062C22.8564216796875,299.97205087890626,25.4146216796875,302.54435087890624,28.3501216796875,304.6309508789062C30.7479216796875,306.2156508789063,33.4595216796875,307.2638508789062,36.2995216796875,307.70395087890626C36.830421679687504,307.80355087890626,37.374521679687504,307.87655087890624,37.9252216796875,307.94285087890626C40.1216216796875,308.20175087890624,42.3910216796875,308.3012508789063,44.5674216796875,308.76585087890624C45.6698216796875,308.98365087890625,46.7431216796875,309.3288508789062,47.7658216796875,309.7946508789063C51.2694216796875,311.42075087890623,53.2401216796875,314.82555087890626,54.1027216796875,318.46265087890623C54.2554216796875,319.09975087890626,54.3747216796875,319.74355087890626,54.4676216796875,320.38735087890626C55.1909216796875,325.33195087890624,54.3947216796875,330.46915087890625,54.8061216796875,335.4203508789062C54.8525216796875,335.94465087890626,54.9122216796875,336.47565087890627,54.9851216796875,337.0000508789062L55.4762216796875,337.0000508789062L55.7948216796875,336.26995087890623L55.7948216796875,336.26325087890626C55.7616216796875,335.98455087890625,55.7350216796875,335.70575087890626,55.7085216796875,335.4203508789062C55.5492216796875,332.98775087890624,55.5293216796875,330.5478508789063,55.6487216796875,328.11295087890625C55.6753216796875,327.01785087890624,55.6952216796875,325.9160508789063,55.6819216796875,324.8143508789062C55.6686216796875,323.9316508789062,55.6355216796875,323.0489508789062,55.5691216796875,322.1728508789063L55.5691216796875,322.16615087890625C55.5226216796875,321.62195087890626,55.4696216796875,321.08435087890626,55.3966216796875,320.54675087890627C55.1858216796875,318.90055087890624,54.7804216796875,317.28535087890623,54.1889216796875,315.73485087890623C53.0213216796875,312.5034508789063,50.5298216796875,309.92445087890627,47.3411216796875,308.64645087890625C46.3780216796875,308.28525087890625,45.3856216796875,308.0077508789062,44.3749216796875,307.8168508789063C42.1521216796875,307.3920508789063,39.8561216796875,307.2858508789063,37.6200216796875,307.00715087890626C37.381121679687496,306.98055087890623,37.142221679687495,306.94735087890626,36.9099216796875,306.90755087890625C36.6113216796875,306.86105087890627,36.3194216796875,306.80795087890624,36.027521679687496,306.75485087890627C33.1017216796875,306.2353508789063,30.3382216796875,305.03745087890627,27.9586216796875,303.25715087890626C25.1308216796875,301.01785087890624,22.6722216796875,298.34815087890627,20.6728216796875,295.34575087890624C19.5846216796875,293.7860508789063,18.549421679687498,292.19315087890624,17.5873216796875,290.55375087890627C17.5873216796875,290.55375087890627,17.5807216796875,290.5471508789062,17.5807216796875,290.5471508789062C17.534221679687498,290.46755087890625,17.4878216796875,290.3945508789063,17.441321679687498,290.31485087890627L17.4347216796875,290.30155087890626C13.3077116796875,283.24715087890627,10.295021679687501,275.59725087890627,8.503221679687499,267.62275087890623C8.4435016796875,267.3306508789062,8.3771016796875,267.03865087890625,8.310841679687499,266.7466508789063C7.0792716796874995,260.9887508789063,6.4851266796875,255.11272087890626,6.5391536796875,249.22475087890626L6.5391536796875,249.21811087890626C6.5391536796875,248.93936087890626,6.5457146796875,248.66725887890624,6.5523566796875,248.38847287890624C6.5656306796875,247.81769447890625,5.6831434796875,247.69158887890626,5.6699404796875,248.26236687890625C5.6633085796875,248.54111287890626,5.6566665696875,248.81989887890626,5.6633085796875,249.09864087890625C5.6633085796875,249.09864087890625,5.6566564396875,249.10529087890626,5.6566564396875,249.10529087890626Z" fill="#FFFFFF" fill-opacity="1"/></g><g><path d="M17.3489056640625,291.0906475C12.1266656640625,293.7437775,5.7517056640625,292.2220775,2.2900071640625,287.4961265C1.9524586640625,287.0319685,2.6577176640625,286.4854965,2.9957116640625,286.9503015C6.2122956640625,291.3587075,12.1604456640625,292.7656775,17.0104056640625,290.2653175C17.5209056640625,290.0029375,17.8564056640625,290.8297675,17.3489056640625,291.0906475Z" fill="#FFFFFF" fill-opacity="1"/></g><g><path d="M35.9422457265625,307.0192775878906C37.789924726562504,301.5230775878906,37.4986047265625,295.53218758789063,35.1263908265625,290.2412895878906C34.8909437265625,289.7172594878906,35.7163767265625,289.3793695878906,35.9515407265625,289.90275258789063C38.4098547265625,295.41321758789064,38.7003247265625,301.6482775878906,36.7650047265625,307.3634775878906C36.5801647265625,307.9080775878906,35.7583947265625,307.56097758789065,35.9422457265625,307.0192775878906Z" fill="#FFFFFF" fill-opacity="1"/></g><g><path d="M8.0544193125,266.8280340527344C10.2520803125,266.23258405273435,12.003110312499999,264.57173405273437,12.7141403125,262.4082470527344C12.8919803125,261.8615310527344,13.7136203125,262.2093454527344,13.5369503125,262.7524960527344C12.7405803125,265.1380940527344,10.8138303125,266.9737840527344,8.3928893125,267.6534140527344C8.1651163125,267.7384440527344,7.9104723125,267.6319040527344,7.8110950125,267.40999405273436C7.7190079125,267.18208405273435,7.8275583125,266.9225040527344,8.0544193125,266.8280340527344Z" fill="#FFFFFF" fill-opacity="1"/></g><g><path d="M42.603380121875,293.71301748046875L42.603380121875,293.7197174804688C42.809160921875,298.45911748046876,43.401677921875,303.17391748046873,44.375014921875,307.8168174804688L44.375014921875,307.82351748046875C44.428154921875,308.1420174804688,44.501134921875,308.45401748046874,44.567454921875,308.7659174804687C46.169014921875004,315.9466174804687,48.414294921875,322.96821748046875,51.276054921875,329.7457174804688Q52.460434921875,332.61291748046875,53.757694921875,335.42041748046876C53.996494921875,335.95131748046873,54.242094921875,336.47571748046875,54.494194921875,337.0000174804687L55.476294921875,337.0000174804687L55.794794921875,336.26991748046873L55.794794921875,336.26331748046874L56.166394921874996,335.42041748046876L56.212894921875,335.32081748046875L56.232794921875,335.42041748046876L56.597694921875004,337.0000174804687L66.086494921875,337.0000174804687L67.931094921875,335.42041748046876L70.618494921875,333.1173174804687L66.862894921875,329.01561748046873L66.245794921875,328.33861748046877L66.152794921875,328.23901748046876L65.854194921875,327.91381748046877L67.094994921875,322.48471748046876L64.600094921875,322.07321748046877L67.333994921875,313.6375174804688L68.627894921875,309.6486174804687L68.952994921875,308.64641748046876L70.844194921875,302.81241748046875L76.55069492187499,303.88101748046876L77.479794921875,300.6289174804688C75.769294921875,296.66311748046877,74.345594921875,292.57971748046873,73.219694921875,288.41001748046875C73.213094921875,288.37681748046873,73.199794921875,288.35031748046873,73.193194921875,288.31711748046877C70.178294921875,277.08581748046873,69.27379492187501,265.39241748046874,70.525794921875,253.83091748046874L70.525794921875,253.82431748046875C70.565494921875,253.45261748046875,70.611994921875,253.07431748046875,70.665094921875,252.70921748046874L70.665094921875,252.69601748046875C71.233794921875,247.90461748046874,72.192594921875,243.16773748046876,73.531694921875,238.53243748046876C73.624594921875,238.18065848046874,73.730694921875,237.83555848046876,73.83029492187501,237.49041748046875C73.52499492187499,237.62316648046874,73.226494921875,237.74927248046876,72.921194921875,237.88202248046875L72.914494921875,237.88862548046876L72.901294921875,237.88862548046876C72.416894921875,238.10101648046876,71.932494921875,238.32665448046876,71.461394921875,238.56561748046875C60.141094921874995,244.06773748046874,51.813554921874996,254.39501748046874,47.082424921875,266.3019174804688C47.069164921875,266.33511748046874,47.055884921875,266.36171748046877,47.042574921875,266.39481748046876C44.573934921875,272.63671748046875,43.102766921875,279.2283174804688,42.683063921875,285.92771748046874C42.523939121875,288.51981748046876,42.497330521875,291.11821748046873,42.603380121875,293.71301748046875Z" fill="#F0F0F0" fill-opacity="1"/></g><g><path d="M59.822509765625,336.999993046875L60.870979765625,336.999993046875C61.202749765625,336.462393046875,61.561079765625,335.938073046875,61.919379765625,335.420363046875Q62.775369765625,334.21577304687503,63.684439765625,333.064213046875C64.208649765625,332.400503046875,64.732849765625,331.743443046875,65.257059765625,331.086383046875C65.801139765625,330.402743046875,66.33864976562501,329.719143046875,66.86286976562499,329.015617046875L66.245769765625,328.338623046875C66.146239765625,328.471372046875,66.046749765625,328.604122046875,65.940479765625,328.736831046875C64.241819765625,330.973523046875,62.403849765625,333.123963046875,60.831099765625,335.420363046875C60.479421765625,335.938073046875,60.141022765625,336.462393046875,59.822509765625,336.999993046875Z" fill="#FFFFFF" fill-opacity="1"/></g><g><path d="M74.05030957031249,237.86129186523436C73.87780957031251,238.08032686523438,73.6986095703125,238.30596686523438,73.5327095703125,238.53164686523436Q71.5918095703125,241.05039686523438,69.8633095703125,243.72847686523437C67.8109095703125,246.87857686523438,65.9880995703125,250.17248686523436,64.4088595703125,253.58448686523437C64.2827795703125,253.84998686523437,64.1567095703125,254.12208686523437,64.0372695703125,254.39418686523436C60.6578995703125,261.84998686523437,58.4552595703125,269.7848868652344,57.5078995703125,277.91598686523434C57.4946395703125,277.9955868652344,57.4879995703125,278.06858686523435,57.4813495703125,278.14828686523435Q57.1529395703125,280.9955868652344,57.0566695703125,283.8627868652344C56.8450565703125,287.46238686523435,57.2010895703125,291.07288686523435,58.1117195703125,294.5616868652344C58.2444395703125,295.01968686523435,58.3904195703125,295.47098686523435,58.5496695703125,295.90908686523437C58.9488595703125,296.98268686523437,59.4487495703125,298.01598686523437,60.0426595703125,298.9952868652344C60.4693895703125,299.71008686523436,60.9438095703125,300.39528686523437,61.4626795703125,301.0461868652344C61.7745495703125,301.4443868652344,62.0996795703125,301.83598686523436,62.4447395703125,302.2142868652344C62.6437995703125,302.43338686523435,62.8494995703125,302.65238686523435,63.0552195703125,302.8713868652344C63.2277495703125,303.03728686523436,63.3936395703125,303.20988686523435,63.5661495703125,303.3757868652344C65.3577595703125,305.1146868652344,67.3351095703125,306.72748686523437,68.9542095703125,308.6456868652344L68.6291095703125,309.64778686523437C67.0697095703125,307.66998686523436,65.0591895703125,306.03058686523434,63.2476595703125,304.30498686523435C62.1104395703125,303.2353868652344,61.0752295703125,302.06218686523437,60.1554995703125,300.8005868652344C60.0360595703125,300.6279868652344,59.9099795703125,300.4554868652344,59.7971695703125,300.2762868652344C59.1823795703125,299.3777868652344,58.6515195703125,298.4246868652344,58.2113095703125,297.4289868652344C57.9856995703125,296.9311868652344,57.7799995703125,296.42018686523437,57.5942095703125,295.88918686523436C56.5100795703125,292.45758686523436,56.0164645703125,288.86678686523436,56.1343803703125,285.26988686523435C56.1557036703125,282.96578686523435,56.2930195703125,280.6641868652344,56.5457805703125,278.3739868652344C56.5723285703125,278.0752868652344,56.6054975703125,277.78328686523434,56.6453095703125,277.4845868652344C57.3181595703125,272.03328686523434,58.5454495703125,266.66478686523436,60.3081195703125,261.4626868652344C62.5390295703125,254.86318686523438,65.6075995703125,248.5773868652344,69.43860957031251,242.75941686523439Q71.0809095703125,240.26054686523437,72.9223095703125,237.88118186523437C73.0815095703125,237.66214786523437,73.2474095703125,237.44975586523438,73.4199095703125,237.23076186523437C73.7716095703125,236.77944586523438,74.4019095703125,237.40997586523437,74.05030957031249,237.86129186523436Z" fill="#FFFFFF" fill-opacity="1"/></g><g><path d="M56.9611655859375,278.45779091796874C51.1944955859375,277.43129091796874,47.0203928859375,272.37731091796877,47.1011298359375,266.51923491796873C47.1067391059375,266.27889191796874,47.3015855859375,266.08614810796877,47.5419125859375,266.0832314274688C47.7822205859375,266.08031474796877,47.9817035859375,266.26823791796875,47.9931445859375,266.50837791796874C47.9078315859375,271.96529091796873,51.8102155859375,276.6706909179687,57.1876755859375,277.5950909179688C57.7531755859375,277.6928909179687,57.5233755859375,278.55519091796873,56.9611655859375,278.45779091796874Z" fill="#FFFFFF" fill-opacity="1"/></g><g><path d="M62.2189451953125,302.3729873046875C67.0025401953125,299.0971873046875,70.3760101953125,294.1384273046875,71.6667101953125,288.4853743046875C71.7941001953125,287.9252093046875,72.6566001953125,288.1524675846875,72.5293001953125,288.7119843046875C71.1752201953125,294.5922173046875,67.6540801953125,299.7454873046875,62.6686581953125,303.1432873046875C62.1932481953125,303.4668873046875,61.7460861953125,302.6947873046875,62.2189451953125,302.3729873046875Z" fill="#FFFFFF" fill-opacity="1"/></g><g><path d="M64.144423765625,253.488240734375C66.257554765625,254.336262734375,68.655364765625,254.064612734375,70.525354765625,252.765389934375C70.996434765625,252.435966734375,71.443114765625,253.208482734375,70.975094765625,253.535717734375C68.903264765625,254.960922734375,66.259904765625,255.266282734375,63.917845765625,254.351012734375C63.684788265625,254.281742734375,63.545609665625,254.043342734375,63.599819065625,253.806282734375C63.663464965625,253.568854734375,63.906384765625,253.426949734375,64.144423765625,253.488240734375Z" fill="#FFFFFF" fill-opacity="1"/></g><g><path d="M123.47544747375,323.3533989746094L130.24502109375,323.3526989746094L133.46591109375,297.2351989746094L123.47412109375,297.2351989746094L123.47544747375,323.3533989746094Z" fill="#FFB8B8" fill-opacity="1"/></g><g><path d="M121.1829981640625,320.0127763671875L131.8845181640625,319.3739013671875L131.8845181640625,323.9599813671875L142.0587181640625,330.9883013671875C143.0902181640625,331.7006013671875,143.53871816406252,333.0011013671875,143.1657181640625,334.1981013671875C142.7928181640625,335.3950013671875,141.6849181640625,336.2102013671875,140.4314181640625,336.2102013671875L127.6907781640625,336.2102013671875L125.4947681640625,331.6739013671875L124.6373181640625,336.2102013671875L119.8336181640625,336.2102013671875L121.1829981640625,320.0127763671875Z" fill="#2F2E41" fill-opacity="1"/></g><g><path d="M59.4921875,319.9844966308594L66.1084875,321.41939663085935L74.7910875,296.5781966308594L65.0268975,294.4602966308594L59.4921875,319.9844966308594Z" fill="#FFB8B8" fill-opacity="1"/></g><g><path d="M57.960051953125,316.2337646484375L68.553751953125,317.8786946484375L67.581751953125,322.3604946484375L76.034951953125,331.3865646484375C76.892051953125,332.3014646484375,77.054651953125,333.6674646484375,76.436451953125,334.7580646484375C75.818151953125,335.8487646484375,74.562751953125,336.4105646484375,73.33775195312501,336.1446646484375L60.886831953125,333.4429646484375L59.702201953125,328.5441646484375L57.902761953125,332.7955646484375L53.208251953125,331.7768646484375L57.960051953125,316.2337646484375Z" fill="#2F2E41" fill-opacity="1"/></g><g><path d="M11.8143310546875,336.21022315625C11.8130249246875,336.64696015625,12.1673400546875,337.00137015625,12.6040020546875,337.00004015625L198.5913310546875,337.00004015625C199.0273310546875,337.00004015625,199.3813310546875,336.64643015625,199.3813310546875,336.21022315625C199.3813310546875,335.77401715625,199.0273310546875,335.42041015625,198.5913310546875,335.42041015625L12.6040120546875,335.42041015625C12.1673600546875,335.41911385625,11.8130553046875,335.77349015625,11.8143310546875,336.21022315625Z" fill="#CCCCCC" fill-opacity="1"/></g><g><path d="M144.4543630859375,206.6857943359375Q139.7032630859375,232.8026943359375,138.51556308593752,244.0790943359375Q142.0787630859375,248.23389433593752,139.7032630859375,250.6099943359375Q137.3277630859375,252.9861943359375,139.7032630859375,257.7311943359375L133.48466308593748,307.4021943359375L132.1575630859375,314.7031943359375L119.70376308593751,312.94519433593746L121.5406630859375,306.0751943359375L118.3434630859375,258.3291943359375Q115.9679630859375,253.57719433593752,117.15576308593751,252.3886943359375Q118.3434630859375,251.2005943359375,115.9679630859375,244.0789943359375L113.0018630859375,187.6904943359375L94.6015630859375,249.4218943359375Q96.38646308593749,251.79789433593749,94.6015630859375,253.5761943359375Q92.8231630859375,255.35519433593748,89.26656308593749,264.26219433593747L75.75546308593749,300.1011943359375L73.1012630859375,305.41119433593747L71.6890630859375,304.7421943359375L65.4781730859375,303.5741943359375L64.3368530859375,303.3611943359375L62.3063830859375,302.9761943359375L60.9991830859375,302.7311943359375L60.5545730859375,302.6511943359375L58.4046630859375,302.2461943359375L59.0549530859375,299.3591943359375L63.8114530859375,292.13719433593747L68.6499630859375,256.71619433593753L68.8622630859375,255.76719433593752L69.0878630859375,254.7651943359375Q67.9000930859375,251.79799433593752,69.6783630859375,250.0126943359375C70.7345630859375,248.9080943359375,71.17886308593751,247.3538943359375,70.8661630859375,245.8577943359375C70.8079630859375,245.7957943359375,70.7546630859375,245.7291943359375,70.7069630859375,245.6586943359375C70.4968630859375,245.3702943359375,70.3519630859375,245.0396943359375,70.2822630859375,244.6896943359375C70.1229630859375,243.9463943359375,70.2623630859375,242.9042943359375,71.4633630859375,241.7029943359375C71.8015630859375,241.3435943359375,72.0854630859375,240.9365943359375,72.3060630859375,240.4950943359375Q74.1109630859375,237.0769943359375,75.0199630859375,229.8358943359375Q76.6257630859375,172.4849943359375,81.8811630859375,163.7240943359375C82.1598630859375,163.2660943359375,87.7388630859375,154.4743543359375,88.0308630859375,154.2951443359375Q93.9629630859375,150.7376843359375,140.26146308593752,154.9876643359375Q143.06076308593748,162.5095243359375,143.1868630859375,163.2926943359375C143.8704630859375,167.6929943359375,148.4821630859375,184.5312943359375,144.4543630859375,206.6857943359375Z" fill="#2F2E41" fill-opacity="1"/></g><g><path d="M192.49859296875,79.17952333984375C192.05489296875,82.69114333984375,188.54549296875,84.94802333984376,185.16719296875,83.89442333984375L173.16501296875,100.14542333984375L169.55029296875,90.28832333984374L181.50199296875,76.36735333984375C182.54489296875,73.66529133984375,185.44349296875,72.17051233984375,188.24899296875,72.88797533984375C191.05459296875,73.60543833984374,192.88019296875,76.30837333984375,192.49859296875,79.17952333984375Z" fill="#FFB8B8" fill-opacity="1"/></g><g><path d="M82.9840380078125,148.01603637695314C81.8837330078125,148.01603637695314,81.2587350078125,147.80023637695314,81.0167060078125,147.33743637695312C80.6616010078125,146.6581363769531,81.2778510078125,145.77083637695313,81.9912980078125,144.74293637695314C82.5206780078125,144.07173637695314,82.9381980078125,143.31953637695312,83.2276880078125,142.5152363769531C83.6543980078125,140.80793637695314,86.5344380078125,97.68383637695312,84.8117280078125,89.06733637695312C84.4132080078125,87.07363637695312,84.7563280078125,84.51793637695312,85.8310380078125,81.47163637695313C88.7668080078125,73.15193637695313,92.7740080078125,70.59503637695312,100.7571080078125,65.50183637695312Q101.7291080078125,64.88153637695312,102.7815080078125,64.20623637695313C103.6890080078125,63.622836376953124,103.6384080078125,61.68875637695312,103.5850080078125,59.640616376953126C103.5257080078125,57.364306376953124,103.4641080078125,55.01022637695313,104.5790080078125,53.538916376953125L104.6516080078125,53.442991376953124L104.7685080078125,53.41578937695313C107.46520800781249,52.79226737695313,116.5349080078125,51.63466937695313,121.9062080078125,53.42421537695313L121.9804080078125,53.44949337695312L122.0358080078125,53.50458637695313C123.3117080078125,54.78079637695313,123.4281080078125,57.25284637695312,123.54050800781249,59.643206376953124C123.6325080078125,61.60578637695313,123.7196080078125,63.45883637695312,124.4415080078125,64.26383637695312C129.9602080078125,70.41673637695312,136.21930800781251,70.29683637695312,136.2828080078125,70.29553637695312L136.5929080078125,70.28653637695312L136.6236080078125,70.59503637695312C139.0242080078125,95.01803637695312,142.8940080078125,131.88033637695312,143.7164080078125,133.3309363769531C143.8040080078125,133.46623637695313,143.8093080078125,133.63903637695313,143.7300080078125,133.77943637695313C142.5228080078125,136.0356363769531,87.1312480078125,148.01603637695314,82.9840380078125,148.01603637695314Z" fill="#427D9D" fill-opacity="1"/></g><g><ellipse cx="119.03072738647461" cy="30.13058853149414" rx="16.36812973022461" ry="16.371906280517578" fill="#FFB8B8" fill-opacity="1"/></g><g><path d="M129.96663515625,60.05766948242187C129.19073515625,58.94936948242187,125.25543515625,45.411369482421875,123.53113515625,41.25586948242187C123.35473515625,42.14886948242187,121.37743515625,45.61136948242188,121.33113515625,46.53276948242188L121.31393515625,46.87416948242188L120.97503515625,46.91806948242188C120.46543515625,46.983069482421875,108.42683515625001,48.44466948242187,102.16173515625,41.338969482421874C98.44983515625,37.12996948242188,97.60803515625,30.816669482421876,99.65633515625001,22.570769482421873C99.28383515625,22.497569482421873,98.92683515625001,22.360069482421874,98.60143515625,22.164369482421876C97.50493515625,21.405169482421876,96.79853515625,20.201269482421875,96.67053515625,18.873569482421875L96.32363515624999,18.966569482421875C94.55713515625,19.443269482421876,92.56463515625,20.073969482421877,91.27743515625,21.529969482421876C89.84463515625,23.149169482421875,89.58953515625001,25.349369482421874,89.31893515625,27.678369482421875C89.21363515625,28.790269482421873,89.03833515625,29.894469482421876,88.79403515625,30.984269482421876C87.92113515625,34.50666948242188,85.46373515625,37.80576948242187,81.49003515625,40.79036948242187C77.48953515625,43.79526948242187,73.41083515625,45.51436948242188,69.36693515625,45.898769482421876C64.59053515625,46.354669482421876,59.984175156250004,44.78496948242187,57.04896515625,41.70336948242188C53.77570715625,38.26766948242187,52.91957515625,32.981569482421875,55.01260515625,29.134669482421874L55.34946515625,28.515069482421875L55.71944515625,29.115569482421876C57.58259515625,32.14006948242187,61.65370515625,33.77366948242187,65.62063515625,33.08696948242188C69.02203515625,32.49856948242188,72.39383515624999,30.338369482421875,75.11513515625,27.004469482421875C77.59933515624999,23.961169482421877,79.31273515625,20.366969482421876,80.96993515625,16.890969482421873C82.65543515625001,13.356669482421875,84.39803515625,9.701809482421876,86.90823515625,6.600659482421875C89.73963515625,3.102689482421875,93.27313515624999,0.818341482421875,96.85813515625,0.167617482421875C99.46883515625001,-0.304276517578125,101.79853515625,0.230670482421875,103.25053515625001,1.638339482421875C104.27653515624999,2.696109482421875,104.88413515625,4.090139482421875,104.96083515625,5.561899482421875C105.85373515625,5.362299482421875,106.78473515625001,5.415799482421875,107.64893515624999,5.716389482421875C109.34713515625,6.407419482421875,110.52923515625,7.974659482421875,110.72743515625001,9.797629482421875C115.98753515625,7.030229482421875,122.94913515625,7.480549482421875,126.54973515625,9.556889482421875C128.05723515625,10.426369482421874,128.92293515625,11.521469482421875,129.07663515625,12.743069482421875C133.32933515625,12.980569482421876,137.90333515625,17.124169482421873,137.90333515625,22.994669482421877L137.90333515625,23.403469482421876L137.49463515625,23.403469482421876C134.12873515625,23.403469482421876,131.05593515625,25.339669482421876,129.27453515625,28.582569482421874C127.14423515625,32.43226948242187,127.28603515625,37.138269482421876,129.64413515625,40.852669482421874C132.18973515624998,44.760069482421876,133.05033515625001,49.529969482421876,132.03093515625,54.080869482421875L130.49513515625,60.81216948242187L129.96663515625,60.05766948242187Z" fill="#2F2E41" fill-opacity="1"/></g><g><path d="M148.7563537109375,121.28701728515625L137.9667537109375,115.21641728515624C119.1520537109375,102.17231728515625,114.5175197109375,91.81361728515625,113.9382466109375,85.41761728515625C113.3200527109375,78.59324728515625,116.9550237109375,74.86053728515625,117.1102137109375,74.70563728515626L117.1941337109375,74.64405728515625L126.9203537109375,69.67338728515625C132.1608537109375,66.99542728515625,138.5623537109375,69.51470928515624,140.5733537109375,75.04655728515625L149.5699537109375,99.79491728515625L159.54425371093748,92.43641728515625L163.7980537109375,90.75971728515626L167.2305537109375,86.16881728515625L176.6576537109375,80.66931728515625L183.66095371093752,86.97381728515626L174.8535537109375,104.59191728515626L169.96055371093752,105.83831728515625L168.9227537109375,108.51191728515624L168.8304537109375,108.57091728515624L148.7563537109375,121.28701728515625Z" fill="#427D9D" fill-opacity="1"/></g><g><ellipse cx="269.9448947906494" cy="232.89337730407715" rx="6.334299087524414" ry="6.335760116577148" fill="#E6E6E6" fill-opacity="1"/></g><g><path d="M266.4739716796875,176.84271982421876L244.5747416796875,176.84271982421876C243.6672526796875,176.83917982421875,242.9334716796875,176.10234982421875,242.9334716796875,175.19465982421875C242.9334716796875,174.28696082421874,243.6672526796875,173.55011440421876,244.5747416796875,173.54656982421875L266.4739716796875,173.54656982421875C267.3813716796875,173.55013465421874,268.1151716796875,174.28696082421874,268.1151716796875,175.19465982421875C268.1151716796875,176.10234982421875,267.3813716796875,176.83917982421875,266.4739716796875,176.84271982421876Z" fill="#E4E4E4" fill-opacity="1"/></g></g></svg>