<svg xmlns="http://www.w3.org/2000/svg" xmlns:xlink="http://www.w3.org/1999/xlink" fill="none" version="1.1" width="120" height="120" viewBox="0 0 120 120"><defs><clipPath id="master_svg0_5_04929"><rect x="0" y="0" width="120" height="120" rx="0"/></clipPath></defs><g clip-path="url(#master_svg0_5_04929)"><g><path d="M101.1,50L80.35,50.05C79.5789,50.0032,78.8077,50.1403,78.1,50.45L75.15,51.75L66,31.25C63.2,24.95,55.8,22.1,49.5,24.9C43.2,27.7,40.35,35.1,43.15,41.4L59.65,78.65L50.3,80.6C49.35,80.85,45.35,81.95,43.5,86.65L40,95.95L73.9,109.3C76.35,110.25,79.15,110.2,81.55,109.1L111.5,95.85C115.95,93.85,118.35,88.95,117.15,84.25L110.35,57.55C109.25,53.25,105.5,50.2,101.1,50ZM107.45,86.7L77.5,100L52.9,90.2L73.8,85.8L52.3,37.3C51.75,36.05,52.3,34.55,53.55,34C54.8,33.45,56.3,34,56.85,35.25L69.35,63.5L77.4,59.95L100.65,60L107.45,86.7ZM10.3,27.8L5,22.5L22.5,5L40,22.5L34.7,27.8L26.6,19.7C22.6336,35.331199999999995,26.1022,51.9181,36,64.65L30.65,70C22.1251,59.3617,17.4861,46.1326,17.5,32.5C17.5,27.9,18,23.4,19,19.1L10.3,27.8Z" fill="#164863" fill-opacity="1"/></g></g></svg>