<svg xmlns="http://www.w3.org/2000/svg" xmlns:xlink="http://www.w3.org/1999/xlink" width="500" zoomAndPan="magnify" viewBox="0 0 375 374.999991" height="500" preserveAspectRatio="xMidYMid meet" version="1.0"><defs><g/><clipPath id="dfe85a3435"><path d="M 100.554688 127 L 274.453125 127 L 274.453125 245.570312 L 100.554688 245.570312 Z M 100.554688 127 " clip-rule="nonzero"/></clipPath><clipPath id="f96fb47ed2"><path d="M 106 50.757812 L 216 50.757812 L 216 233 L 106 233 Z M 106 50.757812 " clip-rule="nonzero"/></clipPath><clipPath id="198dbe60e8"><path d="M 265.601562 191.339844 L 362.457031 191.339844 L 362.457031 324.519531 L 265.601562 324.519531 Z M 265.601562 191.339844 " clip-rule="nonzero"/></clipPath></defs><g clip-path="url(#dfe85a3435)"><path fill="#164863" d="M 237.890625 163.148438 L 274.4375 245.015625 L 246.007812 245.015625 L 219.726562 186.144531 C 198.0625 209.175781 169.632812 226.050781 133.011719 237.078125 L 129.472656 245.015625 L 101.0625 245.015625 L 101.140625 244.859375 L 100.554688 244.976562 C 168.03125 217.289062 210.324219 174.214844 221.957031 127.40625 Z M 237.890625 163.148438 " fill-opacity="1" fill-rule="nonzero"/></g><g clip-path="url(#f96fb47ed2)"><path fill="#427d9d" d="M 106.847656 232.054688 L 175.871094 77.3125 L 187.71875 50.777344 L 199.609375 77.3125 L 215.738281 113.484375 L 212.824219 125.15625 C 210.695312 133.800781 207.507812 142.03125 203.519531 149.773438 L 187.71875 114.460938 L 144.429688 211.503906 C 132.289062 219.480469 119.519531 226.34375 106.847656 232.054688 Z M 106.847656 232.054688 " fill-opacity="1" fill-rule="nonzero"/></g><g clip-path="url(#198dbe60e8)"><path fill="#1b7895" d="M 457.699219 276.746094 C 452.796875 278.953125 441.4375 283.367188 423.667969 289.992188 C 405.898438 296.617188 382.6875 303.992188 354.097656 312.070312 C 325.503906 320.148438 303.75 324.238281 288.777344 324.238281 C 273.539062 324.238281 265.949219 318.855469 265.949219 308.03125 C 265.949219 303.886719 268.15625 297.101562 272.570312 287.785156 C 276.988281 278.46875 279.195312 272.921875 279.195312 271.199219 C 279.195312 268.023438 277.472656 266.40625 274.023438 266.40625 C 270.847656 266.40625 267.507812 266.945312 264.0625 268.078125 C 260.617188 269.207031 256.632812 270.824219 252.109375 273.03125 C 247.585938 275.238281 245.054688 276.476562 244.570312 276.691406 C 243.601562 277.175781 242.738281 277.445312 241.984375 277.445312 C 240.746094 277.445312 240.15625 276.691406 240.15625 275.238281 C 240.15625 274 241.015625 273.03125 242.738281 272.277344 C 243.710938 271.792969 245.917969 270.824219 249.363281 269.316406 C 252.808594 267.859375 255.609375 266.675781 257.816406 265.816406 C 260.023438 264.953125 262.769531 264.089844 266.109375 263.230469 C 269.449219 262.367188 272.410156 261.9375 275.101562 261.9375 C 287.378906 261.9375 293.519531 265.976562 293.519531 274.105469 C 293.519531 277.554688 291.308594 283.90625 286.894531 293.222656 C 282.480469 302.539062 280.269531 308.945312 280.269531 312.339844 C 280.269531 318.207031 282.964844 321.167969 288.347656 321.167969 C 305.257812 321.167969 327.925781 317.023438 356.25 308.675781 C 384.574219 300.332031 407.027344 292.792969 423.613281 286.0625 C 440.199219 279.332031 450.914062 274.699219 455.8125 272.277344 C 457.265625 271.523438 458.128906 271.144531 458.398438 271.144531 C 459.636719 271.144531 460.230469 272.007812 460.230469 273.730469 C 460.28125 275.023438 459.421875 275.992188 457.699219 276.746094 Z M 296.101562 202.757812 C 296.101562 199.582031 297.125 196.890625 299.226562 194.683594 C 301.324219 192.476562 303.695312 191.34375 306.386719 191.34375 C 308.808594 191.34375 310.800781 192.367188 312.257812 194.46875 C 313.710938 196.566406 314.464844 198.828125 314.464844 201.253906 C 314.464844 205.453125 313.441406 209.167969 311.339844 212.453125 C 309.242188 215.789062 306.765625 217.40625 303.800781 217.40625 C 303.316406 217.40625 302.511719 216.921875 301.433594 215.953125 C 300.300781 214.984375 299.171875 213.261719 297.933594 210.78125 C 296.695312 208.414062 296.101562 205.722656 296.101562 202.757812 Z M 296.101562 202.757812 " fill-opacity="1" fill-rule="nonzero"/></g><g fill="#1f2020" fill-opacity="1"><g transform="translate(44.286225, 301.523497)"><g><path d="M 14.609375 0.46875 C 12.066406 0.46875 9.613281 0.109375 7.25 -0.609375 C 4.882812 -1.328125 3.015625 -2.28125 1.640625 -3.46875 L 3.75 -8.21875 C 5.101562 -7.15625 6.753906 -6.285156 8.703125 -5.609375 C 10.660156 -4.929688 12.628906 -4.59375 14.609375 -4.59375 C 17.046875 -4.59375 18.863281 -4.984375 20.0625 -5.765625 C 21.269531 -6.554688 21.875 -7.59375 21.875 -8.875 C 21.875 -9.8125 21.535156 -10.582031 20.859375 -11.1875 C 20.191406 -11.800781 19.34375 -12.28125 18.3125 -12.625 C 17.28125 -12.96875 15.875 -13.359375 14.09375 -13.796875 C 11.582031 -14.398438 9.550781 -15 8 -15.59375 C 6.457031 -16.1875 5.128906 -17.113281 4.015625 -18.375 C 2.898438 -19.644531 2.34375 -21.363281 2.34375 -23.53125 C 2.34375 -25.34375 2.835938 -26.988281 3.828125 -28.46875 C 4.816406 -29.957031 6.300781 -31.140625 8.28125 -32.015625 C 10.269531 -32.898438 12.707031 -33.34375 15.59375 -33.34375 C 17.59375 -33.34375 19.5625 -33.085938 21.5 -32.578125 C 23.445312 -32.078125 25.125 -31.359375 26.53125 -30.421875 L 24.609375 -25.6875 C 23.160156 -26.53125 21.65625 -27.171875 20.09375 -27.609375 C 18.53125 -28.046875 17.015625 -28.265625 15.546875 -28.265625 C 13.128906 -28.265625 11.332031 -27.859375 10.15625 -27.046875 C 8.988281 -26.234375 8.40625 -25.15625 8.40625 -23.8125 C 8.40625 -22.863281 8.738281 -22.09375 9.40625 -21.5 C 10.082031 -20.90625 10.9375 -20.4375 11.96875 -20.09375 C 13 -19.75 14.410156 -19.359375 16.203125 -18.921875 C 18.640625 -18.359375 20.640625 -17.769531 22.203125 -17.15625 C 23.773438 -16.550781 25.113281 -15.617188 26.21875 -14.359375 C 27.332031 -13.109375 27.890625 -11.421875 27.890625 -9.296875 C 27.890625 -7.484375 27.394531 -5.835938 26.40625 -4.359375 C 25.425781 -2.890625 23.929688 -1.71875 21.921875 -0.84375 C 19.921875 0.03125 17.484375 0.46875 14.609375 0.46875 Z M 14.609375 0.46875 "/></g></g></g><g fill="#1f2020" fill-opacity="1"><g transform="translate(86.355695, 301.523497)"><g><path d="M 32.8125 -32.875 L 32.8125 0 L 26.953125 0 L 26.953125 -4.171875 C 24.734375 -1.078125 21.289062 0.46875 16.625 0.46875 C 12.738281 0.46875 9.679688 -0.742188 7.453125 -3.171875 C 5.234375 -5.597656 4.125 -9.03125 4.125 -13.46875 L 4.125 -32.875 L 10.234375 -32.875 L 10.234375 -13.703125 C 10.234375 -10.796875 10.929688 -8.597656 12.328125 -7.109375 C 13.722656 -5.628906 15.640625 -4.890625 18.078125 -4.890625 C 20.703125 -4.890625 22.796875 -5.675781 24.359375 -7.25 C 25.929688 -8.832031 26.71875 -11.191406 26.71875 -14.328125 L 26.71875 -32.875 Z M 32.8125 -32.875 "/></g></g></g><g fill="#1f2020" fill-opacity="1"><g transform="translate(136.124807, 301.523497)"><g><path d="M 41.125 -33.34375 C 44.976562 -33.34375 47.984375 -32.222656 50.140625 -29.984375 C 52.304688 -27.742188 53.390625 -24.523438 53.390625 -20.328125 L 53.390625 0 L 47.28125 0 L 47.28125 -20.09375 C 47.28125 -22.695312 46.597656 -24.660156 45.234375 -25.984375 C 43.878906 -27.316406 42.101562 -27.984375 39.90625 -27.984375 C 37.46875 -27.984375 35.519531 -27.296875 34.0625 -25.921875 C 32.601562 -24.546875 31.875 -22.429688 31.875 -19.578125 L 31.875 0 L 25.78125 0 L 25.78125 -20.09375 C 25.78125 -22.726562 25.144531 -24.703125 23.875 -26.015625 C 22.601562 -27.328125 20.875 -27.984375 18.6875 -27.984375 C 16.21875 -27.984375 14.238281 -27.285156 12.75 -25.890625 C 11.257812 -24.503906 10.515625 -22.398438 10.515625 -19.578125 L 10.515625 0 L 4.40625 0 L 4.40625 -32.875 L 10.328125 -32.875 L 10.328125 -28.546875 C 11.328125 -30.078125 12.6875 -31.257812 14.40625 -32.09375 C 16.132812 -32.925781 18.125 -33.34375 20.375 -33.34375 C 22.695312 -33.34375 24.71875 -32.898438 26.4375 -32.015625 C 28.15625 -31.140625 29.453125 -29.90625 30.328125 -28.3125 C 31.421875 -29.90625 32.914062 -31.140625 34.8125 -32.015625 C 36.707031 -32.898438 38.8125 -33.34375 41.125 -33.34375 Z M 41.125 -33.34375 "/></g></g></g><g fill="#1f2020" fill-opacity="1"><g transform="translate(206.175887, 301.523497)"><g><path d="M 41.125 -33.34375 C 44.976562 -33.34375 47.984375 -32.222656 50.140625 -29.984375 C 52.304688 -27.742188 53.390625 -24.523438 53.390625 -20.328125 L 53.390625 0 L 47.28125 0 L 47.28125 -20.09375 C 47.28125 -22.695312 46.597656 -24.660156 45.234375 -25.984375 C 43.878906 -27.316406 42.101562 -27.984375 39.90625 -27.984375 C 37.46875 -27.984375 35.519531 -27.296875 34.0625 -25.921875 C 32.601562 -24.546875 31.875 -22.429688 31.875 -19.578125 L 31.875 0 L 25.78125 0 L 25.78125 -20.09375 C 25.78125 -22.726562 25.144531 -24.703125 23.875 -26.015625 C 22.601562 -27.328125 20.875 -27.984375 18.6875 -27.984375 C 16.21875 -27.984375 14.238281 -27.285156 12.75 -25.890625 C 11.257812 -24.503906 10.515625 -22.398438 10.515625 -19.578125 L 10.515625 0 L 4.40625 0 L 4.40625 -32.875 L 10.328125 -32.875 L 10.328125 -28.546875 C 11.328125 -30.078125 12.6875 -31.257812 14.40625 -32.09375 C 16.132812 -32.925781 18.125 -33.34375 20.375 -33.34375 C 22.695312 -33.34375 24.71875 -32.898438 26.4375 -32.015625 C 28.15625 -31.140625 29.453125 -29.90625 30.328125 -28.3125 C 31.421875 -29.90625 32.914062 -31.140625 34.8125 -32.015625 C 36.707031 -32.898438 38.8125 -33.34375 41.125 -33.34375 Z M 41.125 -33.34375 "/></g></g></g><g fill="#1f2020" fill-opacity="1"><g transform="translate(276.226968, 301.523497)"><g/></g></g><g fill="#1f2020" fill-opacity="1"><g transform="translate(301.723444, 301.523497)"><g><path d="M 27.234375 -24.703125 C 24.128906 -26.453125 20.90625 -27.515625 17.5625 -27.890625 L 17.5625 0 L 11.453125 0 L 11.453125 -27.890625 C 8.078125 -27.515625 4.835938 -26.453125 1.734375 -24.703125 L -0.375 -29.390625 C 1.8125 -30.703125 4.164062 -31.6875 6.6875 -32.34375 C 9.207031 -33.007812 11.800781 -33.34375 14.46875 -33.34375 C 17.125 -33.34375 19.71875 -33.007812 22.25 -32.34375 C 24.789062 -31.6875 27.15625 -30.703125 29.34375 -29.390625 Z M 27.234375 -24.703125 "/></g></g></g></svg>